<svg id="Layer_2" data-name="Layer 2" xmlns="http://www.w3.org/2000/svg" viewBox="0 0 1039.4 404.91"><defs><style>.cls-1{fill:#82f6f9;}</style></defs><title>Obelisk</title><polygon points="92.06 138.38 213.52 138.38 213.58 138.29 222.41 123.02 161.66 17.79 143.9 17.81 83.18 122.97 92.06 138.38"/><polygon points="160.91 262.4 221.8 157.31 221.74 157.21 212.96 141.91 91.45 141.73 82.56 157.11 143.12 262.36 160.91 262.4"/><polygon class="cls-1" points="242.73 120.68 303.62 15.58 303.57 15.48 294.78 0.18 173.28 0 164.39 15.38 224.95 120.63 242.73 120.68"/><polygon points="376.85 142.49 255.39 142.49 255.34 142.59 246.5 157.86 307.25 263.08 325.02 263.07 385.73 157.91 376.85 142.49"/><polygon points="308.01 18.47 247.12 123.57 247.17 123.67 255.96 138.97 377.46 139.15 386.35 123.77 325.79 18.52 308.01 18.47"/><polygon points="226.18 160.2 165.29 265.3 165.34 265.4 174.13 280.7 295.63 280.88 304.52 265.5 243.97 160.24 226.18 160.2"/><polygon points="407.68 122.96 468.57 17.86 468.51 17.77 459.73 2.47 338.23 2.29 329.33 17.66 389.89 122.92 407.68 122.96"/><polygon points="245.44 404.91 306.33 299.81 306.28 299.71 297.5 284.42 175.99 284.23 167.1 299.61 227.66 404.87 245.44 404.91"/><polygon points="130.35 0.71 8.89 0.71 8.84 0.81 0 16.08 60.75 121.3 78.52 121.29 139.23 16.12 130.35 0.71"/><polygon points="662.9 138.38 784.36 138.38 784.42 138.29 793.25 123.02 732.5 17.79 714.74 17.81 654.02 122.97 662.9 138.38"/><polygon points="731.75 262.4 792.63 157.31 792.58 157.21 783.79 141.91 662.29 141.73 653.4 157.11 713.96 262.36 731.75 262.4"/><polygon points="813.57 120.68 874.46 15.58 874.41 15.48 865.62 0.18 744.12 0 735.23 15.38 795.79 120.63 813.57 120.68"/><polygon points="947.69 142.49 826.23 142.49 826.17 142.59 817.34 157.86 878.09 263.08 895.86 263.07 956.57 157.91 947.69 142.49"/><polygon points="878.85 18.47 817.96 123.57 818.01 123.67 826.8 138.97 948.3 139.15 957.19 123.77 896.63 18.52 878.85 18.47"/><polygon points="797.02 160.2 736.13 265.3 736.18 265.4 744.97 280.7 866.47 280.88 875.36 265.5 814.8 160.24 797.02 160.2"/><polygon points="978.52 122.96 1039.4 17.86 1039.35 17.77 1030.57 2.47 909.06 2.29 900.17 17.66 960.73 122.92 978.52 122.96"/><polygon points="816.28 404.91 877.17 299.81 877.12 299.71 868.33 284.42 746.83 284.23 737.94 299.61 798.5 404.87 816.28 404.91"/><polygon points="701.19 0.71 579.73 0.71 579.67 0.81 570.84 16.08 631.59 121.3 649.36 121.29 710.07 16.12 701.19 0.71"/></svg>