<svg id="R_D_Logo" data-name="R&amp;D Logo" xmlns="http://www.w3.org/2000/svg" viewBox="0 0 1344.42 1587.86"><defs><style>.cls-1,.cls-10,.cls-2,.cls-3,.cls-4,.cls-5,.cls-6,.cls-7{fill:none;}.cls-1,.cls-10,.cls-11,.cls-2,.cls-3,.cls-4,.cls-5,.cls-6,.cls-7{stroke:#ef7b04;}.cls-1,.cls-2,.cls-3,.cls-4,.cls-5,.cls-6{stroke-miterlimit:10;stroke-width:7px;}.cls-2{stroke-dasharray:20.94 20.94 31.41 20.94;}.cls-3{stroke-dasharray:20.86 20.86 31.29 20.86;}.cls-4{stroke-dasharray:15.65 20.86 20.86 20.86 31.29 20.86;}.cls-5{stroke-dasharray:20.07 20.07 30.1 20.07;}.cls-6{stroke-dasharray:15.05 20.07 20.07 20.07 30.1 20.07;}.cls-7{stroke-width:4px;}.cls-11,.cls-8,.cls-9{fill:#ef7b04;}.cls-9{font-size:42px;font-family:EuroStyleNormal, EuroStyle;}.cls-10{stroke-width:5px;}.cls-11{stroke-width:0.95px;}</style></defs><title>R&amp;amp;D Logo</title><g id="Dotted_Orbital" data-name="Dotted Orbital"><g id="Dotted_Orbital-2" data-name="Dotted Orbital"><g id="Dashed_Orbit" data-name="Dashed Orbit"><path class="cls-1" d="M431.59,927l-5.88-4.65" transform="translate(-72.19 -50.39)"/><path class="cls-2" d="M409.36,909.26q-33.38-27-64-54" transform="translate(-72.19 -50.39)"/><path class="cls-1" d="M337.49,848.34l-5.59-5" transform="translate(-72.19 -50.39)"/></g><g id="Dashed_Orbit-2" data-name="Dashed Orbit"><path class="cls-1" d="M1063.63,778.33l5.87,4.67" transform="translate(-72.19 -50.39)"/><path class="cls-3" d="M1085.73,796.11q33.17,27,63.59,54" transform="translate(-72.19 -50.39)"/><path class="cls-4" d="M1157.1,857.1c192.51,172.75,294.55,337.65,242.5,417.92-69,106.39-384.22,26.25-721.92-178.07" transform="translate(-72.19 -50.39)"/><path class="cls-1" d="M668.78,1091.53l-6.4-3.92" transform="translate(-72.19 -50.39)"/></g><g id="Dashed_Orbit-3" data-name="Dashed Orbit"><path class="cls-1" d="M185.72,693.26q-2.4-2.91-4.75-5.8" transform="translate(-72.19 -50.39)"/><path class="cls-5" d="M168.48,671.76a712.75,712.75,0,0,1-45.89-65.82" transform="translate(-72.19 -50.39)"/><path class="cls-6" d="M117.45,597.32c-42-71.88-54-132.34-28.24-172.07,54.6-84.19,263.37-51.58,515.46,66.94,0,0,15.06,5.6,125.52,64.27,34.66,18.41,69.25,39.11,104.12,61" transform="translate(-72.19 -50.39)"/><path class="cls-1" d="M842.79,622.75l6.34,4" transform="translate(-72.19 -50.39)"/></g><g id="Buscuit"><path class="cls-7" d="M246,869.57c54.17,8.53,104.87-27.15,113.24-79.69a93.48,93.48,0,0,0-1.43-36.7,16.24,16.24,0,0,1-9.65,1.43,15.75,15.75,0,0,1-13.49-15.25,18.58,18.58,0,0,1-6.28,0c-10.5-1.78-17.71-12-16.1-22.79a19.7,19.7,0,0,1,5.22-10.75q-.84,0-1.69-.18c-9-1.4-15.2-9.53-13.81-18.15,0-.2.09-.39.13-.58a102.15,102.15,0,0,0-25.82-7.64" transform="translate(-72.19 -50.39)"/><path class="cls-7" d="M276.32,679.29c-54.17-8.53-104.87,27.15-113.24,79.69S191.84,861,246,869.57" transform="translate(-72.19 -50.39)"/></g></g><g id="Dashed_Orbit-4" data-name="Dashed Orbit"><path class="cls-1" d="M1157.81,891.49c148.89,142.86,224.27,275.15,180.81,342.17-20.77,32-66.24,45.36-128.92,42.06" transform="translate(-72.19 -50.39)"/><polygon class="cls-8" points="1088.37 1219.94 1160.54 1198.66 1141.22 1225.31 1154.78 1255.28 1088.37 1219.94"/></g><g id="Dashed_Orbit-5" data-name="Dashed Orbit"><path class="cls-1" d="M179.35,634.52c-42.54-65.32-56.63-120.6-33.87-155.69,27.27-42.06,102.64-47.63,204.23-22.74" transform="translate(-72.19 -50.39)"/><polygon class="cls-8" points="325.12 418.99 250.43 428.07 273.88 404.98 265.45 373.17 325.12 418.99"/></g></g><g id="_Biscuitron_Labeling" data-name="&quot;Biscuitron&quot; Labeling"><text class="cls-9" transform="translate(960.79 139.61)">“Biscuitron”</text><path class="cls-10" d="M1204.71,196.85c0,27.66-8.35,52.17-21.25,67.45" transform="translate(-72.19 -50.39)"/><polygon class="cls-8" points="1080.03 230.36 1112.58 187.6 1112.72 211.1 1133.21 222.62 1080.03 230.36"/></g><g id="Non-Dotted_Orbitals" data-name="Non-Dotted Orbitals"><path class="cls-11" d="M1129.11,295.69a89.12,89.12,0,0,0-25.85-26,15.26,15.26,0,0,1-5.49,6.27,15.05,15.05,0,0,1-16.12.27,18,18,0,0,1-6.18,6.8c-8.15,5.29-18.9,3.21-24-4.65a16.41,16.41,0,0,1-2.63-8.46A14.61,14.61,0,0,1,1034,263.6a14.22,14.22,0,0,1-2.25-6.59,95.5,95.5,0,0,0-30.89,13.08c-43.37,28.16-56.26,85.29-28.78,127.6s84.9,53.77,128.27,25.6S1156.58,338,1129.11,295.69Z" transform="translate(-72.19 -50.39)"/><path class="cls-11" d="M611.26,1295.83c-53.41,0-96.71,42.24-96.71,94.34a92,92,0,0,0,7.77,37.09,15.73,15.73,0,0,1,8.27-2.36,15.53,15.53,0,0,1,14.1,8.84,18.57,18.57,0,0,1,9.2-2.43c10,0,18.18,7.85,18.18,17.53a17,17,0,0,1-2.48,8.82,15.09,15.09,0,0,1,9.33,13.83,14.6,14.6,0,0,1-1.82,6.94,98.61,98.61,0,0,0,34.17,6.08c53.41,0,96.71-42.24,96.71-94.34S664.68,1295.83,611.26,1295.83Z" transform="translate(-72.19 -50.39)"/><path class="cls-8" d="M498.7,803.78a30.19,30.19,0,0,1-10.2,2.45c1.32,21,3.92,51.91,6.72,81.35q4.85-1.59,9.85-2.82C502.63,859.61,500.5,832.52,498.7,803.78ZM375.78,399l.35-.35-1.08-.31.48.89Zm600.91,838.6a17.77,17.77,0,0,1-.48,6.61c-.72,2.62-1.41,5.23-1.93,7.89,0,.39-.07.78-.09,1.18a21.48,21.48,0,0,1-.32,2.71c.37,7.6-6.18,50.49-13,84.58C930.88,1489.17,878.13,1582,816.25,1595c-6.61,1.39-19.4,1.77-26.51.79-28.73-4-62.1-27.54-91.08-64.32-39.76-50.45-76.63-126-108.58-222.47-6.82-20.59-14.84-46.61-14.84-48.15,0-.7,2.14-2.49,4.75-4,20.8-11.92,58.08-34.49,75.75-45.86,19.15-12.32,61.76-40.84,75.5-50.53,9.08-6.4,17.54-12.19,18.82-12.87.25-.13.48-.25.71-.35a20.82,20.82,0,0,1,4.74-4.11c2.61-1.64,5.18-3.45,7.89-4.93a30.27,30.27,0,0,1,5.1-4.31c2.89-2.08,16.5-12.21,30.25-22.52,12.3-9.22,19.87-14.92,28.53-21.61q-2.16-4.55-4-9.26c-27.42,21.13-53.82,40.83-66.72,49.58h0a18.19,18.19,0,0,1-4.44,2.37c-.44.55-.9,1.09-1.38,1.62a24.84,24.84,0,0,1-5.31,4.28c-1.85,1.15-3.85,2.08-5.79,3.06a37.37,37.37,0,0,1-7.11,5.78c-4.26,2.85-14.28,9.6-22.27,15-41.75,28.21-88.86,57.37-131.1,81.15h0c-5.76,3.24-7.42,3.73-8.22,2.42s-7.22-25.3-12.6-46.83c-3.52-14.08-7.18-29.72-10.76-45.84-3.25.23-6.53.36-9.83.36l-2.17,0c5.37,25.06,11.14,49.93,17.22,74,5.83,23.14,6.28,25.61,4.87,27.16-2.26,2.5-65.65,34.13-88.39,44.1-67.77,29.73-125.11,47.41-176,54.28h0c-11.26,1.52-44.58,2.72-52.5,1.9-25.63-2.68-46.6-9.56-60.5-19.85a87.77,87.77,0,0,1-19.06-20.28c-26-39.47-16.72-107.75,26.17-193.51C221.74,1052.52,279,970.65,349.1,890c5.74-6.6,11-12.36,11.8-12.81a.6.6,0,0,1,.3-.06,17.59,17.59,0,0,1,8.92-10.84,20.88,20.88,0,0,1,1.77-2.09l20.91-22.7c14-15.16,31.88-33.62,48.23-49.94a29.59,29.59,0,0,1-7-8.86c-19.26,19.2-39.13,39.56-54.47,55.87h0c-9.14,9.72-17.37,17.85-19.74,19.57a19.93,19.93,0,0,1-4.21,6.89A15.45,15.45,0,0,1,351,868.4c-.9,1.55-4.85,6.41-9.56,11.7C212,1025.79,131.14,1159.71,115.61,1254c-2.49,15.11-2.49,42.52,0,55,8,40.31,35.06,63.93,82.63,72.23,11.79,2.06,45.68,2.31,61,.45,55.93-6.77,124.52-28.09,198.45-61.66,21.54-9.78,67.58-32.81,87.89-44,8.59-4.72,16.07-8.58,16.62-8.58s1.72,2.59,2.61,5.75c14.73,52.31,34.86,111,52.72,153.75,28.49,68.17,61.12,123.92,93.74,160.15,24.15,26.83,53.86,45.84,78.7,50.38h0c8.36,1.53,27.92.4,35.77-2.06a120.3,120.3,0,0,0,29.5-14.75c8.6-6.07,26-23.73,33.46-33.92,29.66-40.59,52.69-96.39,72.14-174.81,9.41-38,20.37-99.79,24.89-140.5a55.94,55.94,0,0,1,1.5-9.36,19.5,19.5,0,0,1,.18-2.1,21.18,21.18,0,0,1,.57-7.31l0-.06a18.58,18.58,0,0,1,.56-6.77l1.09-2.57c0-3.8.5-12.31,1.43-23,1.41-16.22,2.63-32.26,3.65-48.28q-5.84,1.27-11.84,2.07C980.59,1206,978.13,1232.4,976.69,1237.59Zm17-358.93c-1.59-21.88-3.76-48.33-6-72.67-2.89.34-5.81.59-8.76.74,1.56,18,3.45,44.37,5,70.24Q988.92,877.66,993.73,878.67ZM1375,385.27c-.63-20.33-2.55-29.45-9.1-43.19-7.8-16.35-19-28.35-33.49-35.86-7.53-3.91-32.9-12.17-43.53-14.17-16.87-3.18-44-2.78-70.6,1.05-56,8.06-126.83,31.67-204.15,68.09-25.71,12.11-84.91,42.89-92.32,48-1.82,1.25-5.53,1.89-5.53,1,0-.22-2-7.31-4.55-15.75-51.13-172.46-115.54-288-183.46-329.13-32.78-19.85-69-19.79-95.28.15-19.63,14.92-23.58,18.24-29.44,24.71-49.45,54.6-89.15,177.14-107.16,330.75-1,8.7-2.27,16.24-2.79,16.76a.55.55,0,0,1-.33.07,18.68,18.68,0,0,1-1.13,12.63c.74,2.12.06,8.42-1.87,31.22-1.08,12.72-2.63,35.79-3.47,51.72.74-.11,1.49-.18,2.23-.21a19.4,19.4,0,0,1,8.3,1.43c1.32-22.06,3.13-44.67,5.55-70.6a61.1,61.1,0,0,1,1.06-7.31A19.82,19.82,0,0,1,504,453a38.1,38.1,0,0,1,.88-4.93c0-.15.08-.31.14-.47s0-.07,0-.1a17,17,0,0,1,.73-4.9c-.55-2.47,3.72-35.46,8-61.76C542,206.91,595.47,100.2,663.24,82.35c14.92-3.93,34.27-2.2,50.89,4.55,31.12,12.64,65.19,46.48,95.28,94.62C838,227.19,865.22,287.35,888.52,356c8,23.72,18.72,58,18.72,60.19,0,.55-8.21,5.86-18.25,11.8-32.68,19.35-61.65,37.64-94.75,59.84-25.32,17-25.3,17-51.21,35.16-2.35,1.65-9.39,6.71-15.64,11.25h0c-6,4.35-11.41,7.92-12.39,8.18l-8.45,6.73a5.5,5.5,0,0,1-1.81,1c-1.75,1.66-7.92,6.55-15.23,12-13.48,10.13-26.36,20-38.74,29.69a25,25,0,0,1,5.15,3.64,20,20,0,0,1,2.81,3.19c28.42-22.28,53.53-41.2,57.65-43,1.47-1.27,3.08-2.38,4.65-3.52a62.28,62.28,0,0,1,5.8-3.91c.76-1.54,10.12-8.63,25.93-19.6l13-9C798.23,497,846.32,466,880.24,445.84c23.62-14.05,28-16.45,29.7-16.13,1.82.36,3.56,6.27,13.77,46.82,5.66,22.48,11.6,48.44,17,74.2q4.58-1.15,9.28-2c-8.36-40.48-18.11-81.76-27-114-1.79-6.53-2.72-11.66-2.21-12.14,2-1.88,38.57-21.2,62.56-33.07,87.38-43.22,160.82-68.27,224.33-76.51,17.68-2.3,48.54-2.33,62-.08,49.86,8.36,76.26,34.16,81.56,79.72,10.23,87.9-74.83,243.61-221.87,406.14h0c-6.5,7.18-12.35,13.18-14.06,14.45-3.07,4.15-6.14,8.47-10.11,11.75l0,.09c-1.38,2.58-40.4,42.47-68.17,70q4.09,2.33,8,4.92c10-9.88,20.93-20.82,30.86-30.86l39.45-39.87.25.22a20.23,20.23,0,0,1,3-4.19,16,16,0,0,1,6.09-4.11,1.7,1.7,0,0,1-.4-.67c0-.83,3.9-5.78,8.64-11,128-141,212.16-272.58,235.77-368.84C1374.05,418.7,1375.58,405.3,1375,385.27Z" transform="translate(-72.19 -50.39)"/></g><g id="Crossed_Wrenches" data-name="Crossed Wrenches"><path id="Wrench" class="cls-8" d="M1077.56,655.25c-.38-.61-11,7.38-37.88,28.57-33.65,26.5-37.51,29.35-38.87,28.78-.83-.35-3.9-1.55-6.81-2.66s-9.88-4.14-15.49-6.71-13.76-6.22-18.12-8.11c-4.79-2.07-8.09-3.86-8.34-4.52-1.27-3.39-6.56-48-6.12-51.55.18-1.49,6-6.4,55.16-46.75,9.68-7.94,17.63-14.69,17.66-15,.19-1.57-13.56-6.51-24.78-8.92-21.58-4.62-46.64-1.64-66.92,8-10.76,5.1-25,15.47-33.66,24.48-8.89,9.28-18.08,26.17-22.59,41.58-3.94,13.44-5.44,31.1-3.76,44.34a47.27,47.27,0,0,1,.51,6.2c-.08.62-1.82,3.43-3.87,6.25-3.6,4.95-6.7,7.43-89.93,72.23C726.36,808.32,663.47,857.12,634,879.86l-1,.75c-47.63,36.77-52.88,40.64-55.7,41.12-2.38.41-8.09-.05-23.71-1.89-18.57-2.19-21.27-2.37-27.7-1.84-29.5,2.42-55.14,15.35-74,37.32-15.47,18-25.21,43.81-25.4,67.34-.05,6.48,1,17.71,1.73,18.94.38.61,11-7.38,37.88-28.57,33.65-26.5,37.51-29.35,38.87-28.78.83.35,3.9,1.55,6.81,2.66s9.88,4.14,15.49,6.71,13.76,6.22,18.12,8.11c4.79,2.07,8.09,3.86,8.34,4.52,1.27,3.39,6.56,48,6.12,51.55-.18,1.49-6,6.4-55.16,46.75-9.68,7.94-17.62,14.69-17.66,15s.69,1,1.61,1.48c3.06,1.64,14.75,5.62,20.21,6.87h0a109,109,0,0,0,69.87-7.41c10.76-5.1,25-15.47,33.66-24.48,6.42-6.69,14.66-20.19,19-31.19,6.67-16.73,9.39-36.88,7.22-53.59a42.53,42.53,0,0,1-.45-7.14c.47-3.79,5.79-10.17,15.18-18.19,13.19-11.26,255.92-201.64,262.95-206.24,6.26-4.09,8.64-4.86,17.29-5.58,3.61-.3,5.25-.15,7.42.67,1.55.59,9,1.85,16.91,2.85,12.29,1.56,15.1,1.72,21.55,1.22,29.59-2.28,55.4-15.23,74.38-37.32,15.47-18,25.21-43.81,25.4-67.34C1079.34,667.71,1078.32,656.48,1077.56,655.25ZM623.85,1044.6c-4.11,15.82-10.17,28-19,38.3-18.65,21.68-41.92,33.2-69.23,34.25h0c-10.87.42-18.87-.41-18.68-1.93,0-.35,13.26-11,29.38-23.58s29.8-23.52,30.41-24.22c1-1.16.89-3.16-1.28-21.69-1.31-11.23-3-26.22-3.78-33.31-1.63-15.11-1.77-15.72-4.19-18.72-2-2.5-.42-1.76-42.51-19.7-11.86-5.05-22.11-9.09-22.78-9s-14.75,10.87-31.29,23.87-30.15,23.43-30.25,23.18c-.39-1,2.49-12.18,4.74-18.48,2.92-8.19,8.39-18.71,12.43-23.94,13.63-17.63,32.93-30.63,52.51-35.39,13.92-3.38,29.23-3.9,40.41-1.37,13.2,3,28,9.47,36.68,16.1,14.9,11.34,27.57,28.42,33.37,45S627.76,1029.56,623.85,1044.6Zm273-269.83c-16.94,12.7-56.53,43.12-130.63,100.34-31.92,24.65-75.26,58-96.31,74.2h0c-21.06,16.16-38.41,29.37-38.56,29.35-.51-.06-1.9-2.47-5.28-9.13A94.86,94.86,0,0,0,603.92,942c-4-3.33-6.86-6.18-6.81-6.78s46.32-37.31,102.81-81.65,116.35-91.49,133-104.8c29.26-23.35,39.93-31.45,41.24-31.29,1.1.14,7.82,18.41,7.23,19.69-.29.64-7.56,6.41-16.14,12.82C820.06,783.8,679.83,892.37,678,895s-2.64,8.83-1.44,11.26,4.68,4.38,7.87,4.27c6.69-.24,4.65,1.26,109.91-80.89,55.17-43.06,100.61-78.26,101-78.21a33.39,33.39,0,0,1,5.08,3.63c2.44,2,5.72,4.41,7.29,5.47,1.73,1.16,2.82,2.37,2.75,3S904.38,769.14,896.88,774.77Zm163.55-71.55a90.31,90.31,0,0,1-30.63,42.25c-18,14-38.15,20.55-62.1,20h0c-3.71-.08-7.07-.23-7.46-.32l-6.1-1.41c-12.28-2.82-27.34-9.54-35.74-15.94-14.9-11.34-27.57-28.42-33.37-45s-7-35.57-3.07-50.61c4.12-15.83,10.18-28,19-38.3,17.46-20.27,38.94-31.66,64-33.93,11.68-1.06,24.13-.21,23.9,1.64,0,.33-13.26,10.93-29.38,23.56s-29.8,23.52-30.41,24.22c-1,1.15-.89,3.16,1.28,21.69,1.31,11.23,3,26.22,3.78,33.31,1.63,15.11,1.77,15.72,4.19,18.72,2,2.5.42,1.76,42.51,19.7,11.86,5.05,22.11,9.08,22.78,9s14.75-10.87,31.29-23.87,30.15-23.44,30.25-23.18C1065.55,685.71,1062.68,696.92,1060.43,703.22Z" transform="translate(-72.19 -50.39)"/><path class="cls-8" d="M965.4,916.67c-16.45.14-35.28,6.08-51,16.09-30.25,19.3-47.15,51.31-46.83,88.72.17,20.65,9.4,44.4,24,61.82,19.15,22.83,47.81,36,78.67,36.07h0c30.82.1,63.9-17.45,81.59-43.28,12.5-18.25,18.54-38.55,18.35-61.63-.14-16.45-6.08-35.28-16.09-51C1034.82,933.25,1002.81,916.36,965.4,916.67Zm61.47,180.52h0c-2.51,1.55-2.09,1.5-4.58.5-1.12-.45-3.46-1.36-5.18-2a16.45,16.45,0,0,1-4.09-2.12c-2.35-2.27-9.81-6.13-13.71-7.09a59.47,59.47,0,0,1-8.37-2.88,67,67,0,0,0-6.37-2.5c-2.16-.64-2.3-.84-2.64-3.89s-.58-3.35-2.79-4.69c-1.77-1.06-2.87-1.31-4-.9l-3,1.09c-1.07.39-2.51-.22-6-2.51-5-3.29-8.71-5-9.57-4.3-1.07.83-9.19-2-19.34-6.86l-10.31-4.89-.56-3.32c-.47-2.81-.87-3.49-2.54-4.43-2.31-1.29-3.78-1.21-5.86.3A7.6,7.6,0,0,1,915,1048c-1.88.24-21.07-8.87-24-11.4-1.27-1.08-2.84-1.91-3.5-1.84-1.23.14-15.31-6-17.16-7.5-.88-.7-.95-1.17-.44-2.92q1.57-5.4,12.63-11.55c8.31-4.62,16.39-9.78,20.64-13.2a59.07,59.07,0,0,1,6.06-4.21l2.91-1.68,2.13,1.42c3.58,2.4,7.45,0,6.82-4.18a14.33,14.33,0,0,1-.13-3.67c.28-1.4,5.41-4.82,11.48-7.65a37.75,37.75,0,0,0,7.31-4.61c4.06-3.53,21.31-16.07,22.24-16.18a10.77,10.77,0,0,1,3.39,1.31c2.93,1.55,4.93,1.22,6.82-1.14.9-1.12,1-1.94.44-4.13-.78-3.11-.7-3.24,4.24-6.63,25.5-17.5,30.82-20.32,35.15-18.66,2.78,1.07,4.1,3,5.31,7.59.58,2.23,1.5,5.61,2,7.52.72,2.56,3.25,29.48,2.9,30.78a34.73,34.73,0,0,1-3.08,2.14c-2.94,1.93-3,2.06-2.73,4.82s.48,2.91,3.21,4.05l2.9,1.21,1.24,13.2c.74,7.92,1.07,15.09.83,17.94a71.07,71.07,0,0,0,.3,11.17c.68,6.2.65,6.48-.84,7.77-3.1,2.69-3.75,3.84-3.5,6.13.22,2,.61,2.43,3.39,3.7l3.14,1.43.77,9.69c.64,7.94.6,10.32-.22,13.21-.91,3.21-.88,4.28.36,12.07C1029.69,1094.34,1029.58,1095.52,1026.86,1097.2Zm-347-351c-55-42.28-57.12-44-58.26-48-.61-2.12-.51-11.12.42-36.52.68-18.54,1.17-35.17,1.1-37l-.13-3.25L591.23,595c-17.46-14.57-33.86-28.23-36.44-30.36l-4.7-3.87L543.91,562c-3.39.7-14.56,2.9-24.82,4.9s-18.87,3.93-19.14,4.29c-.7.93.29,18.87,1.1,19.95.37.49,13.8,11.15,29.85,23.68s29.45,23.12,29.76,23.52c.75.94-2,59.34-2.89,60.43-.36.46-3.29,2-6.52,3.36s-15.08,6.67-26.34,11.73-21,9.27-21.62,9.35-14.93-10.4-33.56-24.66l-32.41-24.81-9.9,1.19-9.9,1.19,0,3.27c-.05,6.4,3.8,53.32,4.45,54.17,1.57,2.07,72.88,52.88,74.47,53.06,1.09.13,13.66-3.88,34.22-10.91,17.87-6.11,34.07-11.42,36-11.79,4.85-.94,6.41-.07,26.92,15.05,39.64,29.22,61.79,45.37,73.65,53.7h0c2,1.39,3.9,2.7,5.64,3.87L735,788.4l-7.67-5.7ZM1082.7,979.94a127.54,127.54,0,0,0-22.08-40.21,121,121,0,0,0-86.92-43.14c-11-.53-30.17,2-41.2,5.4-20.74,6.45-27.33,7.34-36.29,4.95l-5.37-1.43-37.39-28.89c-8.69-6.72-16.33-12.56-22.48-17.19l-64.28,49.84,1,.77c.17,1.32,4.6,5,21.48,17.94,11.7,9,28.34,21.5,37,27.87,19.57,14.42,19.81,14.72,21.31,26.85a161.06,161.06,0,0,1,.91,17.52c-.13,14.07.87,29.41,2.47,37.76a119.57,119.57,0,0,0,42.7,71.55c21.61,17.51,49,26.85,77.86,26.55h0c7.7-.08,25-3,33.33-5.64a120.55,120.55,0,0,0,77.63-76.81,142.56,142.56,0,0,0,5.9-32C1088.77,1010.34,1086.17,990.67,1082.7,979.94Zm-27.91,95.27c-14.44,21.9-36.55,37.27-63,43.76h0c-41.47,10.18-86.42-7.61-110.46-43.73a104.12,104.12,0,0,1,41-151.07,104.07,104.07,0,0,1,132.41,151Z" transform="translate(-72.19 -50.39)"/></g><path class="cls-8" d="M1014.26,1301.46l-2.15-.72,2.92-9.88,3,1C1016.54,1295.71,1015.78,1297.62,1014.26,1301.46Zm5.52,1.84-2.15-.71,2.79-9.92,3.09,1C1022,1297.53,1021.27,1299.45,1019.78,1303.3Z" transform="translate(-72.19 -50.39)"/><path class="cls-8" d="M1017,1318.64c3.26-9.77,4.88-14.66,8.1-24.44,4.73,1.55,7.11,2.31,11.86,3.8a10.37,10.37,0,0,1,3.46,1.7,4,4,0,0,1,1.47,2.52,8.59,8.59,0,0,1-.46,3.85,8.85,8.85,0,0,1-1.75,3.45,4.42,4.42,0,0,1-3.26,1.11,5.51,5.51,0,0,1,2.59,3,7.65,7.65,0,0,1-.37,4.1,11.34,11.34,0,0,1-1.81,3.69,4.83,4.83,0,0,1-2.79,1.76,8.16,8.16,0,0,1-4.17-.38C1024.68,1321.15,1022.1,1320.32,1017,1318.64Zm16.41-7.27c-4-1.24-5.93-1.87-9.87-3.14-1.17,3.57-1.76,5.36-2.94,8.93,3.1,1,4.65,1.5,7.76,2.48a18.3,18.3,0,0,0,3.69.87,2.6,2.6,0,0,0,2.08-.7,7,7,0,0,0,1.5-2.92,6.52,6.52,0,0,0,.33-3.52Q1035.58,1312.06,1033.38,1311.37Zm2.41-11c-3.52-1.1-5.27-1.66-8.78-2.8l-2.69,8.23c3.15,1,4.72,1.52,7.88,2.52a9.5,9.5,0,0,0,3.07.55,2.58,2.58,0,0,0,1.89-.86,7.09,7.09,0,0,0,1.28-2.59,3.27,3.27,0,0,0-2.65-5Z" transform="translate(-72.19 -50.39)"/><path class="cls-8" d="M1040.43,1326l-2.7-.82c2.14-6.88,3.2-10.33,5.32-17.22l2.66.8C1043.6,1315.68,1042.55,1319.12,1040.43,1326Zm7.51-24.63-.87,2.86-2.64-.8.87-2.85Z" transform="translate(-72.19 -50.39)"/><path class="cls-8" d="M1060.46,1317.94l-2.64-.75a2.3,2.3,0,0,0-.44-2.51,7,7,0,0,0-2.81-1.39l-1.31-.38a6.21,6.21,0,0,0-3-.29,2.32,2.32,0,0,0-1.59,1.83,5,5,0,0,0-.28,1.69,1.5,1.5,0,0,0,.52,1,4.76,4.76,0,0,0,1.57.83c1.16.4,2.39.75,3.55,1.12a13.16,13.16,0,0,1,3,1.3,4.27,4.27,0,0,1,1.76,2.06,5.05,5.05,0,0,1,0,3.31,5.93,5.93,0,0,1-1.92,3.28,4.24,4.24,0,0,1-2.9.77,22.22,22.22,0,0,1-4.29-.89,24.35,24.35,0,0,1-3.9-1.44,5.14,5.14,0,0,1-2.27-2.09,4.31,4.31,0,0,1-.12-3.45,8.37,8.37,0,0,1,.33-.95l2.66.79a5.47,5.47,0,0,0-.3,2.44,2.15,2.15,0,0,0,1,1.44,9.27,9.27,0,0,0,2.48,1l.62.18c2.12.62,3.58.78,4.38.52.63-.21,1.14-1,1.52-2.27q.49-1.7-.19-2.39a5.65,5.65,0,0,0-2.41-1.19l-1.08-.31-.23-.11-.24-.11q-2.58-.92-3.39-1.25a6.45,6.45,0,0,1-1.68-1.05,3.41,3.41,0,0,1-1.14-1.84,5.26,5.26,0,0,1,.22-2.75c.62-2,1.45-3.23,2.46-3.56,1.42-.46,3.45-.33,6.07.43a19.74,19.74,0,0,1,3.66,1.42,5.29,5.29,0,0,1,2.24,2.14A4.36,4.36,0,0,1,1060.46,1317.94Z" transform="translate(-72.19 -50.39)"/><path class="cls-8" d="M1073.55,1328.55l2.68.71a9.06,9.06,0,0,1-1.85,3.87,4.09,4.09,0,0,1-2.88,1.28,15.67,15.67,0,0,1-4.63-.69,14.68,14.68,0,0,1-4.27-1.75,4.51,4.51,0,0,1-1.89-2.31,6.38,6.38,0,0,1-.17-3,40.08,40.08,0,0,1,1.08-4.52,15,15,0,0,1,2-4.64,4.83,4.83,0,0,1,3.09-2,11.51,11.51,0,0,1,5,.47,11.07,11.07,0,0,1,5,2.49q1.56,1.57.72,4.74l-.15.56-2.58-.68a5.44,5.44,0,0,0,.22-2.49,2.28,2.28,0,0,0-1-1.45,8.82,8.82,0,0,0-2.44-1,10.4,10.4,0,0,0-3.64-.51,2.58,2.58,0,0,0-1.93,1.25,14.94,14.94,0,0,0-1.43,3.7l-.49,1.74a17.17,17.17,0,0,0-.71,3.54,2.78,2.78,0,0,0,.82,2.15,7,7,0,0,0,3.14,1.53,13.81,13.81,0,0,0,3.26.59,2.27,2.27,0,0,0,1.81-.81A7.41,7.41,0,0,0,1073.55,1328.55Z" transform="translate(-72.19 -50.39)"/><path class="cls-8" d="M1095.29,1322.33c-1.74,7-2.62,10.49-4.39,17.48l-2.49-.62.59-2.31a5.57,5.57,0,0,1-3,1.4,12,12,0,0,1-3.85-.46q-3.21-.82-4.34-2.69t-.28-5c1.23-4.61,1.85-6.91,3.07-11.52l2.73.71c-1.21,4.61-1.82,6.92-3,11.53a6.93,6.93,0,0,0-.3,2.5,2.11,2.11,0,0,0,.88,1.49,7.22,7.22,0,0,0,2.43,1,8.9,8.9,0,0,0,3.43.34,3,3,0,0,0,2-1.2,9,9,0,0,0,1.25-3c1-4.1,1.56-6.16,2.6-10.26Z" transform="translate(-72.19 -50.39)"/><path class="cls-8" d="M1095.05,1340.81l-2.75-.67c1.76-7,2.63-10.49,4.37-17.48l2.71.66C1097.65,1330.32,1096.79,1333.82,1095.05,1340.81Zm6.16-25-.71,2.9-2.69-.65.72-2.9Z" transform="translate(-72.19 -50.39)"/><path class="cls-8" d="M1112.6,1326.42l-.49,2.13c-2.77-.63-4.15-.95-6.91-1.6-1,4.28-1.54,6.42-2.57,10.7a3.5,3.5,0,0,0,0,2.28,2.75,2.75,0,0,0,1.91,1.05q1.7.39,2.34-.23a4.73,4.73,0,0,0,1-2.27l.26-1.1,2.53.58a9.37,9.37,0,0,1-2.12,4.56q-1.37,1.36-4.55.63a9.05,9.05,0,0,1-3.06-1.19,3,3,0,0,1-1.28-1.89,7.25,7.25,0,0,1,.22-3.06c1-4.28,1.56-6.42,2.6-10.69l-2.35-.56.52-2.12,2.34.56,1-4.21,2.7.64-1,4.21C1108.46,1325.48,1109.84,1325.79,1112.6,1326.42Z" transform="translate(-72.19 -50.39)"/><path class="cls-8" d="M1114.77,1326.91l2.6.58-.5,2a5.55,5.55,0,0,1,5.45-1.35c3.47.75,4.76,3.19,3.86,7.35l-2.62-.56a6,6,0,0,0,0-3.18q-.4-1.15-2.34-1.56c-2.8-.61-4.51.44-5.13,3.18-1.06,4.68-1.6,7-2.67,11.71l-2.72-.61C1112.35,1337.45,1113.16,1333.94,1114.77,1326.91Z" transform="translate(-72.19 -50.39)"/><path class="cls-8" d="M1126.87,1338.22a18,18,0,0,1,1.65-4.9,4.63,4.63,0,0,1,2.79-2.25,10.88,10.88,0,0,1,5.06.11,14.71,14.71,0,0,1,5.09,1.78,4.25,4.25,0,0,1,1.91,3,16.33,16.33,0,0,1-.39,5.35,31,31,0,0,1-1.49,5.46,5,5,0,0,1-2.65,2.71q-1.89.85-5.46.13a16.83,16.83,0,0,1-5.1-1.69,4.29,4.29,0,0,1-2.09-2.86,12.7,12.7,0,0,1,.3-5.15Zm2.75.57-.32,1.48q-.87,4.06,0,5.44a4.4,4.4,0,0,0,2.79,1.35l1.32.27a11.54,11.54,0,0,0,2.84.29,2.84,2.84,0,0,0,1.83-.77,4.74,4.74,0,0,0,1.18-2.3c.23-.92.52-2.28.87-4a22.94,22.94,0,0,0,.53-3.79,2.54,2.54,0,0,0-.81-2,6.32,6.32,0,0,0-3-1.19l-.59-.12a10.44,10.44,0,0,0-3.6-.27,2.47,2.47,0,0,0-1.78,1.33,15.05,15.05,0,0,0-1.16,3.74Z" transform="translate(-72.19 -50.39)"/><path class="cls-8" d="M1146.13,1333.44l2.45.47-.45,2.3a5.52,5.52,0,0,1,3-1.65,12.7,12.7,0,0,1,7.55,1.39,3.87,3.87,0,0,1,1.7,2.37,9.44,9.44,0,0,1,0,3.93c-.85,4.69-1.28,7-2.14,11.73l-2.8-.5c.86-4.61,1.29-6.92,2.14-11.53a8.42,8.42,0,0,0,.16-2.78,2.21,2.21,0,0,0-1-1.54,8.09,8.09,0,0,0-2.76-.9c-3.59-.66-5.7.69-6.36,4.07-.84,4.34-1.27,6.51-2.12,10.84l-2.75-.52C1144,1344.05,1144.75,1340.52,1146.13,1333.44Z" transform="translate(-72.19 -50.39)"/><path class="cls-8" d="M1164.9,1339.46l-2.25-.39c.56-4.08.83-6.13,1.39-10.21l3.16.55C1166.28,1333.43,1165.82,1335.44,1164.9,1339.46Zm5.79,1-2.26-.38c.5-4.09.75-6.14,1.24-10.23l3.24.54C1172,1334.4,1171.58,1336.41,1170.69,1340.44Z" transform="translate(-72.19 -50.39)"/><path class="cls-8" d="M1183.65,1345.56l.24-1.5q.51-3.2,1-5.14a10,10,0,0,1,1.52-3.36,5.54,5.54,0,0,1,2.9-2,11.19,11.19,0,0,1,4.92-.17l1.22.17a37.27,37.27,0,0,1,4.84,1,7.88,7.88,0,0,1,3,1.54,5.18,5.18,0,0,1,1.61,2.84,13.43,13.43,0,0,1,0,4.75c-.55,4-1,7-1.3,9.11a15.23,15.23,0,0,1-1.08,3.88,5.83,5.83,0,0,1-1.85,2.35,6.17,6.17,0,0,1-2.93,1.06,17,17,0,0,1-4.3-.14c-.25,0-.61-.1-1.09-.2s-.88-.17-1.2-.22a23.5,23.5,0,0,1-4-.88,7,7,0,0,1-2.62-1.49,5.12,5.12,0,0,1-1.42-2.54,11.59,11.59,0,0,1-.15-4Q1183.14,1348.84,1183.65,1345.56Zm3.07.33-.63,4.07a12.3,12.3,0,0,0,0,3.92,3,3,0,0,0,1.52,2.06,11.51,11.51,0,0,0,3.89,1.09,38.5,38.5,0,0,0,4,.41,5.57,5.57,0,0,0,2.51-.44,3.7,3.7,0,0,0,1.7-1.73,12.21,12.21,0,0,0,1-3.53q.47-2.77,1.26-8.39a9.83,9.83,0,0,0-.1-4.45A3.09,3.09,0,0,0,1200,1337a26,26,0,0,0-4.66-1l-1-.15a11.68,11.68,0,0,0-3.68-.1,2.86,2.86,0,0,0-2,1.47,12.89,12.89,0,0,0-1.19,4Z" transform="translate(-72.19 -50.39)"/><path class="cls-8" d="M1206.32,1343.12l2.66.34-.31,2a5.61,5.61,0,0,1,5.34-1.84c3.55.43,5.07,2.75,4.55,7l-2.68-.32a6,6,0,0,0-.25-3.17,2.88,2.88,0,0,0-2.49-1.35c-2.87-.35-4.49.85-4.85,3.63-.64,4.76-1,7.14-1.6,11.9l-2.79-.36C1204.87,1353.83,1205.36,1350.26,1206.32,1343.12Z" transform="translate(-72.19 -50.39)"/><path class="cls-8" d="M1218.34,1362.75c1.27-10.22,1.89-15.34,3.12-25.57l2.73.31c-.46,4-.7,6-1.17,9.93,1-1.58,3-2.2,5.88-1.89a9.65,9.65,0,0,1,4.71,1.49,4.82,4.82,0,0,1,1.9,3.09,18.37,18.37,0,0,1,0,5.11,29.71,29.71,0,0,1-.65,4,7.33,7.33,0,0,1-1.27,2.72,4.93,4.93,0,0,1-2.51,1.66,10.5,10.5,0,0,1-4.21.24c-2.83-.3-4.72-1.33-5.66-3.07l-.1,2.31Zm4-9.15-.12,1a22,22,0,0,0-.2,3,4.27,4.27,0,0,0,.47,1.94,3.17,3.17,0,0,0,1.51,1.33,9.39,9.39,0,0,0,3,.71,6.09,6.09,0,0,0,3.52-.38,4.23,4.23,0,0,0,1.61-2.79,27.69,27.69,0,0,0,.57-3.49,23.13,23.13,0,0,0,.18-4,3.09,3.09,0,0,0-1.15-2.2,6.71,6.71,0,0,0-3.52-1.14,6.18,6.18,0,0,0-3.43.37,3.31,3.31,0,0,0-1.64,1.91A18.18,18.18,0,0,0,1222.32,1353.6Z" transform="translate(-72.19 -50.39)"/><path class="cls-8" d="M1239,1364.93l-2.85-.28c.77-7.17,1.14-10.75,1.89-17.92l2.8.27C1240.13,1354.17,1239.76,1357.76,1239,1364.93Zm2.61-25.62-.3,3-2.79-.27.31-3Z" transform="translate(-72.19 -50.39)"/><path class="cls-8" d="M1254.56,1348.21l-.19,2.18c-2.86-.23-4.29-.36-7.15-.61-.42,4.38-.63,6.57-1,11a3.47,3.47,0,0,0,.3,2.26,2.8,2.8,0,0,0,2.06.77q1.76.15,2.31-.56a4.69,4.69,0,0,0,.71-2.39l.1-1.12,2.62.21a9.29,9.29,0,0,1-1.47,4.81q-1.18,1.54-4.47,1.26a9.27,9.27,0,0,1-3.23-.75,3,3,0,0,1-1.55-1.7,7.18,7.18,0,0,1-.21-3.06c.44-4.38.65-6.57,1.08-11l-2.43-.23.22-2.17,2.42.23.42-4.31,2.79.25-.41,4.31C1250.27,1347.86,1251.7,1348,1254.56,1348.21Z" transform="translate(-72.19 -50.39)"/><path class="cls-8" d="M1260.14,1353.88l-2.88-.22q.29-3.36,2.13-4.16a12.71,12.71,0,0,1,5.64-.52,19.22,19.22,0,0,1,4.52.75,4.27,4.27,0,0,1,2.47,2,7.46,7.46,0,0,1,.62,4.14c-.33,4.68-.5,7-.84,11.69l-2.68-.17.31-1.87a5.1,5.1,0,0,1-2.73,1.58,14.29,14.29,0,0,1-3.83.16,16,16,0,0,1-4.08-.73,4.1,4.1,0,0,1-2.28-1.85,6.34,6.34,0,0,1-.53-3.66,5.72,5.72,0,0,1,1.19-3.37,4.32,4.32,0,0,1,2.58-1.39,17,17,0,0,1,4-.1,18.34,18.34,0,0,1,3.63.56,3.79,3.79,0,0,1,2.22,1.65l.15-2.09a9.73,9.73,0,0,0-.16-3.32,2.21,2.21,0,0,0-1.38-1.47,13.15,13.15,0,0,0-3.48-.58,6.62,6.62,0,0,0-3.62.45,2.29,2.29,0,0,0-1,1.9,1.28,1.28,0,0,0,0,.3A1.41,1.41,0,0,1,1260.14,1353.88Zm-1.21,7q-.19,2.26.69,3.11a5.4,5.4,0,0,0,3.3,1,23.21,23.21,0,0,0,3.15,0,4.53,4.53,0,0,0,2.28-.76,2.78,2.78,0,0,0,1.11-2.25q.16-2.2-1.09-2.91a9.52,9.52,0,0,0-3.86-.89l-.71-.05c-2-.15-3.38,0-4,.5Q1259.08,1359.19,1258.94,1360.91Z" transform="translate(-72.19 -50.39)"/><path class="cls-8" d="M1277.94,1342.1c-.66,10.28-1,15.42-1.7,25.7l-2.87-.17c.73-10.28,1.09-15.42,1.77-25.69Z" transform="translate(-72.19 -50.39)"/><path class="cls-8" d="M1289.46,1368.5c.57-10.29.85-15.43,1.38-25.72,4.94.23,7.42.33,12.37.5a16.41,16.41,0,0,1,3,.34,4.63,4.63,0,0,1,2.18,1.12,5.48,5.48,0,0,1,1.64,2.88,15.59,15.59,0,0,1,.31,3.89,14.69,14.69,0,0,1-.46,3.36,4.85,4.85,0,0,1-1.49,2.4,5.63,5.63,0,0,1-1.66,1,7.36,7.36,0,0,1-1.84.46,20.55,20.55,0,0,1-2.52.09l-1.59,0c-3.11-.11-4.66-.17-7.77-.31-.21,4-.31,6.07-.53,10.11Zm3.67-12.41,7.13.28a20.36,20.36,0,0,0,4.1-.16,3,3,0,0,0,2.09-1.35,7,7,0,0,0,.8-3.48,13.22,13.22,0,0,0-.18-3.16,2.63,2.63,0,0,0-1.18-1.73,5.83,5.83,0,0,0-2.86-.66c-3.75-.13-5.62-.2-9.37-.36C1293.45,1349.72,1293.35,1351.84,1293.13,1356.09Z" transform="translate(-72.19 -50.39)"/><path class="cls-8" d="M1315.1,1356.56l-2.9-.07q.11-3.37,1.92-4.27a12.86,12.86,0,0,1,5.64-.82,19.44,19.44,0,0,1,4.59.51,4.29,4.29,0,0,1,2.59,1.84,7.42,7.42,0,0,1,.84,4.1c-.08,4.69-.13,7-.22,11.72l-2.7,0,.22-1.88a5.14,5.14,0,0,1-2.66,1.72,14.48,14.48,0,0,1-3.84.36,16.14,16.14,0,0,1-4.14-.51,4.12,4.12,0,0,1-2.39-1.73,6.3,6.3,0,0,1-.73-3.63,5.7,5.7,0,0,1,1-3.43,4.35,4.35,0,0,1,2.52-1.53,17.18,17.18,0,0,1,4-.31,18.57,18.57,0,0,1,3.67.37,3.81,3.81,0,0,1,2.32,1.53c0-.84,0-1.26,0-2.09a9.67,9.67,0,0,0-.34-3.3,2.22,2.22,0,0,0-1.47-1.39,13.25,13.25,0,0,0-3.52-.39,6.7,6.7,0,0,0-3.61.65,2.29,2.29,0,0,0-.89,2,1.27,1.27,0,0,0,0,.3A1.35,1.35,0,0,1,1315.1,1356.56Zm-.84,7.08q-.07,2.26.86,3.07a5.46,5.46,0,0,0,3.37.85,23.56,23.56,0,0,0,3.16-.12,4.58,4.58,0,0,0,2.25-.88,2.78,2.78,0,0,0,1-2.31q0-2.2-1.25-2.84a9.64,9.64,0,0,0-3.93-.68H1319c-2.05,0-3.39.2-4,.72Q1314.31,1361.92,1314.26,1363.64Z" transform="translate(-72.19 -50.39)"/><path class="cls-8" d="M1341.76,1351.58c0,.87,0,1.31,0,2.18-2.9,0-4.35,0-7.24,0,0,4.4-.07,6.6-.13,11a3.43,3.43,0,0,0,.49,2.22,2.84,2.84,0,0,0,2.14.59c1.19,0,1.95-.25,2.28-.75a4.64,4.64,0,0,0,.51-2.44c0-.45,0-.68,0-1.13h2.65a9.24,9.24,0,0,1-1.07,4.92c-.71,1.09-2.17,1.64-4.39,1.64a9.43,9.43,0,0,1-3.32-.47,3,3,0,0,1-1.7-1.56,7.13,7.13,0,0,1-.47-3c.07-4.4.1-6.6.16-11l-2.46,0c0-.87,0-1.31,0-2.18l2.46,0c0-1.73,0-2.6.05-4.33h2.83c0,1.73,0,2.6,0,4.33C1337.43,1351.6,1338.87,1351.6,1341.76,1351.58Z" transform="translate(-72.19 -50.39)"/><path class="cls-8" d="M1346.73,1343.82c0,3.92,0,5.88,0,9.8a4.3,4.3,0,0,1,2.33-2,12.22,12.22,0,0,1,3.63-.51,12,12,0,0,1,4.22.53,3.94,3.94,0,0,1,2.24,2,9.41,9.41,0,0,1,.74,4c.06,4.69.09,7,.14,11.73l-2.9.06c0-4.69-.06-7-.11-11.73a2.18,2.18,0,0,1,0-.5,5.52,5.52,0,0,0-.47-2.49,2.33,2.33,0,0,0-1.41-1.15,8.92,8.92,0,0,0-2.69-.27,8.82,8.82,0,0,0-3.6.63,3.24,3.24,0,0,0-1.7,1.84,10.36,10.36,0,0,0-.46,3.47c0,4.14,0,6.2,0,10.34l-2.81,0c0-10.3.06-15.46.05-25.76Z" transform="translate(-72.19 -50.39)"/></svg>