<svg id="Layer_1" data-name="Layer 1" xmlns="http://www.w3.org/2000/svg" viewBox="0 0 72.26 22.85"><defs><style>.cls-1{font-size:10.1px;}.cls-1,.cls-10,.cls-12,.cls-9{fill:#ef7b04;}.cls-1,.cls-10{font-family:EuroStyleNormal, EuroStyle;}.cls-11,.cls-13,.cls-2,.cls-3,.cls-4,.cls-5,.cls-6,.cls-7,.cls-8{fill:none;}.cls-11,.cls-12,.cls-13,.cls-2,.cls-3,.cls-4,.cls-5,.cls-6,.cls-7,.cls-8{stroke:#ef7b04;}.cls-13,.cls-2,.cls-3,.cls-4,.cls-5,.cls-6,.cls-7{stroke-miterlimit:10;}.cls-2,.cls-3,.cls-4,.cls-5,.cls-6,.cls-7{stroke-width:0.1px;}.cls-3{stroke-dasharray:0.3 0.3 0.45 0.3;}.cls-4{stroke-dasharray:0.3 0.3 0.45 0.3;}.cls-5{stroke-dasharray:0.23 0.3 0.3 0.3 0.45 0.3;}.cls-6{stroke-dasharray:0.29 0.29 0.43 0.29;}.cls-7{stroke-dasharray:0.22 0.29 0.29 0.29 0.43 0.29;}.cls-8{stroke-width:0.06px;}.cls-10{font-size:0.6px;}.cls-11{stroke-width:0.07px;}.cls-12{stroke-width:0.01px;}.cls-13{stroke-width:0.33px;}</style></defs><title>confluence_rd_logo_resized</title><text class="cls-1" transform="translate(19.5 14.64)">CANONN R&amp;D</text><g id="Dotted_Orbital" data-name="Dotted Orbital"><g id="Dotted_Orbital-2" data-name="Dotted Orbital"><g id="Dashed_Orbit" data-name="Dashed Orbit"><path class="cls-2" d="M8.15,14l-.09-.07" transform="translate(-2.98 -1.36)"/><path class="cls-3" d="M7.83,13.72q-.48-.39-.93-.78" transform="translate(-2.98 -1.36)"/><path class="cls-2" d="M6.79,12.84l-.08-.07" transform="translate(-2.98 -1.36)"/></g><g id="Dashed_Orbit-2" data-name="Dashed Orbit"><path class="cls-2" d="M17.25,11.84l.08.07" transform="translate(-2.98 -1.36)"/><path class="cls-4" d="M17.57,12.09q.48.39.92.78" transform="translate(-2.98 -1.36)"/><path class="cls-5" d="M18.59,13c2.77,2.49,4.24,4.86,3.49,6-1,1.53-5.53.38-10.39-2.56" transform="translate(-2.98 -1.36)"/><path class="cls-2" d="M11.57,16.34l-.09-.06" transform="translate(-2.98 -1.36)"/></g><g id="Dashed_Orbit-3" data-name="Dashed Orbit"><path class="cls-2" d="M4.61,10.61l-.07-.08" transform="translate(-2.98 -1.36)"/><path class="cls-6" d="M4.36,10.3a10.25,10.25,0,0,1-.66-.95" transform="translate(-2.98 -1.36)"/><path class="cls-7" d="M3.63,9.23c-.6-1-.78-1.9-.41-2.48C4,5.54,7,6,10.64,7.72c0,0,.22.08,1.81.92.5.26,1,.56,1.49.87" transform="translate(-2.98 -1.36)"/><path class="cls-2" d="M14.07,9.59l.09.06" transform="translate(-2.98 -1.36)"/></g><g id="Buscuit"><path class="cls-8" d="M5.48,13.15A1.41,1.41,0,0,0,7.11,12a1.35,1.35,0,0,0,0-.53.23.23,0,0,1-.14,0,.23.23,0,0,1-.19-.22H6.67a.29.29,0,0,1-.23-.33.28.28,0,0,1,.08-.15h0a.23.23,0,0,1-.2-.26h0a1.47,1.47,0,0,0-.37-.11" transform="translate(-2.98 -1.36)"/><path class="cls-8" d="M5.92,10.41a1.39,1.39,0,1,0-.44,2.74" transform="translate(-2.98 -1.36)"/></g></g><g id="Dashed_Orbit-4" data-name="Dashed Orbit"><path class="cls-2" d="M18.6,13.46c2.14,2.06,3.23,4,2.6,4.92a2,2,0,0,1-1.85.61" transform="translate(-2.98 -1.36)"/><polygon class="cls-9" points="15.66 17.56 16.7 17.25 16.43 17.63 16.62 18.06 15.66 17.56"/></g><g id="Dashed_Orbit-5" data-name="Dashed Orbit"><path class="cls-2" d="M4.52,9.77C3.91,8.83,3.71,8,4,7.52S5.51,6.84,7,7.2" transform="translate(-2.98 -1.36)"/><polygon class="cls-9" points="4.68 6.03 3.61 6.19 3.94 5.85 3.81 5.39 4.68 6.03"/></g></g><g id="_Biscuitron_Labeling" data-name="&quot;Biscuitron&quot; Labeling"><text class="cls-10" transform="translate(13.83 2.01)">“Biscuitron”</text><path class="cls-11" d="M19.28,3.47a1.53,1.53,0,0,1-.31,1" transform="translate(-2.98 -1.36)"/><polygon class="cls-9" points="15.54 3.31 16.01 2.7 16.01 3.04 16.31 3.2 15.54 3.31"/></g><g id="Non-Dotted_Orbitals" data-name="Non-Dotted Orbitals"><path class="cls-12" d="M18.19,4.89a1.28,1.28,0,0,0-.37-.37.22.22,0,0,1-.08.09.22.22,0,0,1-.23,0,.26.26,0,0,1-.09.1.25.25,0,0,1-.35-.07.24.24,0,0,1,0-.12.21.21,0,0,1-.21-.09.2.2,0,0,1,0-.09,1.37,1.37,0,0,0-.44.19,1.31,1.31,0,1,0,1.85.37Z" transform="translate(-2.98 -1.36)"/><path class="cls-12" d="M10.74,19.28a1.38,1.38,0,0,0-1.39,1.36,1.32,1.32,0,0,0,.11.53.23.23,0,0,1,.12,0,.22.22,0,0,1,.2.13.27.27,0,0,1,.13,0,.26.26,0,0,1,.26.25.24.24,0,0,1,0,.13.22.22,0,0,1,.13.2.21.21,0,0,1,0,.1,1.42,1.42,0,0,0,.49.09,1.36,1.36,0,1,0,0-2.72Z" transform="translate(-2.98 -1.36)"/><path class="cls-9" d="M7.35,6.38h0ZM21.6,5.56A1.09,1.09,0,0,0,21.12,5a3.63,3.63,0,0,0-.63-.2,3.47,3.47,0,0,0-1,0,11,11,0,0,0-2.94,1c-.37.17-1.22.62-1.33.69s-.08,0-.08,0l-.07-.23c-.74-2.48-1.66-4.14-2.64-4.74a1.2,1.2,0,0,0-1.37,0,2.7,2.7,0,0,0-.42.36A9.45,9.45,0,0,0,9.08,6.69a1.43,1.43,0,0,1,0,.24H9a.27.27,0,0,1,0,.18,2.46,2.46,0,0,1,0,.45c0,.18,0,.52-.05.75H9a.28.28,0,0,1,.12,0c0-.32,0-.64.08-1a.87.87,0,0,1,0-.11.28.28,0,0,1,0-.05V7.08h0a.24.24,0,0,1,0-.07s.05-.51.12-.89c.41-2.5,1.18-4,2.15-4.3a1.22,1.22,0,0,1,.73.07,3.35,3.35,0,0,1,1.37,1.36,12.31,12.31,0,0,1,1.14,2.51c.12.34.27.84.27.87l-.26.17c-.47.28-.89.54-1.36.86l-.74.51-.23.16-.18.12-.12.1h0l-.22.17-.58.44s.07,0,.09,0l0,.05c.41-.32.78-.6.84-.62l.07-.05.08-.06a2.74,2.74,0,0,1,.37-.28L13,8.11c.47-.33,1.16-.77,1.65-1.06s.4-.24.43-.23.05.09.2.67c.08.33.17.7.24,1.07l.13,0c-.12-.58-.26-1.18-.39-1.65a.53.53,0,0,1,0-.17s.56-.31.9-.48a10.56,10.56,0,0,1,3.23-1.1,4.06,4.06,0,0,1,.89,0,1.24,1.24,0,0,1,1.17,1.15c.15,1.27-1.08,3.51-3.19,5.85l-.2.21a.92.92,0,0,1-.15.17h0s-.59.62-1,1l.12.07.45-.45.57-.57h0l0-.06a.23.23,0,0,1,.09-.06h0a.82.82,0,0,1,.12-.16A14.19,14.19,0,0,0,21.64,7a2.61,2.61,0,0,0,.09-.8A1.31,1.31,0,0,0,21.6,5.56ZM9.12,12.19l-.15,0c0,.3.06.75.1,1.19l.15,0C9.18,13,9.15,12.61,9.12,12.19Zm7.12,1.09c0-.32-.05-.7-.09-1.06H16c0,.26.05.64.07,1ZM16,18.45a.26.26,0,0,1,0,.1l0,.11v.06a10.64,10.64,0,0,1-.19,1.22c-.43,2.14-1.19,3.47-2.08,3.66a1.42,1.42,0,0,1-.38,0A2.28,2.28,0,0,1,12,22.67a10.74,10.74,0,0,1-1.56-3.2c-.1-.3-.21-.67-.21-.69s0,0,.07-.06l1.09-.66,1.09-.73.27-.19h0l.07-.06.11-.07L13,17l.44-.32.42-.32-.06-.13c-.4.3-.78.59-1,.72l-.06,0,0,0-.08.06-.08,0-.1.08-.32.22c-.6.41-1.28.83-1.89,1.17-.08,0-.11.05-.12,0s-.1-.36-.18-.67-.1-.43-.16-.67H9.66c.08.36.15.72.24,1.07s.09.37.07.39-.94.49-1.27.63a9.61,9.61,0,0,1-2.53.78,6,6,0,0,1-.76,0,1.8,1.8,0,0,1-.87-.29,1.27,1.27,0,0,1-.27-.29C3.89,19,4,18,4.64,16.77A17,17,0,0,1,7,13.44l.17-.18h0a.25.25,0,0,1,.13-.16l0,0,.3-.33c.2-.22.46-.48.7-.72a.42.42,0,0,1-.1-.13l-.79.81L7.12,13a.29.29,0,0,1-.06.1l-.07,0-.14.17c-1.86,2.1-3,4-3.25,5.38a2.93,2.93,0,0,0,0,.79,1.28,1.28,0,0,0,1.19,1,4.53,4.53,0,0,0,.88,0,10.2,10.2,0,0,0,2.86-.89c.31-.14,1-.47,1.26-.63l.24-.12s0,0,0,.08a20.88,20.88,0,0,0,.76,2.21,8.35,8.35,0,0,0,1.35,2.3,2.22,2.22,0,0,0,1.13.73,1.55,1.55,0,0,0,.51,0,1.73,1.73,0,0,0,.42-.21,2.94,2.94,0,0,0,.48-.49,7.15,7.15,0,0,0,1-2.52,18.44,18.44,0,0,0,.36-2,.8.8,0,0,1,0-.13v0a.3.3,0,0,1,0-.11h0a.27.27,0,0,1,0-.1l0,0c0-.05,0-.18,0-.33s0-.47.05-.7l-.17,0C16.05,18,16,18.37,16,18.45Z" transform="translate(-2.98 -1.36)"/></g><g id="Crossed_Wrenches" data-name="Crossed Wrenches"><path id="Wrench" class="cls-9" d="M17.45,10.06a5.32,5.32,0,0,0-.55.41c-.48.38-.54.42-.56.41l-.1,0-.22-.1-.26-.12-.12-.07s-.09-.69-.09-.74a7.13,7.13,0,0,1,.79-.67l.25-.22a1,1,0,0,0-.36-.13,1.56,1.56,0,0,0-1,.11,1.9,1.9,0,0,0-.48.35,1.6,1.6,0,0,0-.33.6,1.72,1.72,0,0,0-.05.64.68.68,0,0,1,0,.09l-.06.09a11.59,11.59,0,0,1-1.29,1l-2,1.56h0a5.46,5.46,0,0,1-.8.59l-.34,0a1.73,1.73,0,0,0-.4,0,1.54,1.54,0,0,0-1.07.54,1.57,1.57,0,0,0-.37,1,1.3,1.3,0,0,0,0,.27,5.32,5.32,0,0,0,.55-.41c.48-.38.54-.42.56-.41l.1,0,.22.1.26.12.12.07s.09.69.09.74a7.13,7.13,0,0,1-.79.67l-.25.22,0,0,.29.1h0a1.57,1.57,0,0,0,1-.11,1.9,1.9,0,0,0,.48-.35,1.59,1.59,0,0,0,.38-1.22.61.61,0,0,1,0-.1c0-.05.08-.15.22-.26s3.68-2.9,3.78-3a.41.41,0,0,1,.25-.08h.11l.24,0a1.25,1.25,0,0,0,.31,0,1.54,1.54,0,0,0,1.07-.54,1.57,1.57,0,0,0,.37-1A1.3,1.3,0,0,0,17.45,10.06Zm-6.53,5.6a1.32,1.32,0,0,1-.27.55,1.34,1.34,0,0,1-1,.49h0c-.16,0-.27,0-.27,0l.42-.34.44-.35s0,0,0-.31l-.05-.48c0-.22,0-.23-.06-.27s0,0-.61-.28l-.33-.13-.45.34-.44.33a1.35,1.35,0,0,1,.07-.27,1.48,1.48,0,0,1,.18-.34,1.41,1.41,0,0,1,.76-.51,1.36,1.36,0,0,1,.58,0,1.51,1.51,0,0,1,.53.23,1.47,1.47,0,0,1,.48.65A1.31,1.31,0,0,1,10.92,15.67Zm3.93-3.88L13,13.23,11.58,14.3h0l-.55.42s0,0-.08-.13a1.37,1.37,0,0,0-.32-.4l-.1-.1L12,12.92l1.91-1.51a5,5,0,0,1,.59-.45,1.07,1.07,0,0,1,.1.28l-.23.18c-.65.49-2.67,2-2.69,2.09a.21.21,0,0,0,0,.16.13.13,0,0,0,.11.06c.1,0,.07,0,1.58-1.16l1.45-1.13.07.05.1.08s0,0,0,0Zm2.35-1a1.3,1.3,0,0,1-.44.61,1.34,1.34,0,0,1-.89.29h-.11l-.09,0a1.53,1.53,0,0,1-.51-.23,1.47,1.47,0,0,1-.48-.65,1.31,1.31,0,0,1,0-.73,1.32,1.32,0,0,1,.27-.55A1.35,1.35,0,0,1,15.83,9c.17,0,.35,0,.34,0l-.42.34-.44.35s0,0,0,.31l.05.48c0,.22,0,.23.06.27s0,0,.61.28l.33.13.45-.34.44-.33A1.35,1.35,0,0,1,17.2,10.75Z" transform="translate(-2.98 -1.36)"/><g id="Obelisk_Ratchet" data-name="Obelisk Ratchet"><path class="cls-9" d="M11.72,11.37c-.79-.61-.82-.63-.84-.69a3.9,3.9,0,0,1,0-.53c0-.27,0-.51,0-.53v0l-.46-.38-.52-.44L9.86,8.7l-.09,0-.36.07-.28.06a1.29,1.29,0,0,0,0,.29l.43.34.43.34s0,.85,0,.87l-.09,0-.38.17L9.18,11l-.48-.35-.47-.36-.14,0-.14,0v0c0,.09.05.77.06.78s1,.76,1.07.76l.49-.16.52-.17c.07,0,.09,0,.39.22l1.06.77.08.06.89-.69-.11-.08Zm5.8,3.36a1.84,1.84,0,0,0-.32-.58A1.74,1.74,0,0,0,16,13.54a2.12,2.12,0,0,0-.59.08c-.3.09-.39.11-.52.07l-.08,0-.54-.42L13.9,13l-.92.72h0s.07.07.31.26l.53.4c.28.21.29.21.31.39a2.33,2.33,0,0,1,0,.25,3.24,3.24,0,0,0,0,.54,1.72,1.72,0,0,0,.61,1,1.74,1.74,0,0,0,1.12.38,2.28,2.28,0,0,0,.48-.08,1.73,1.73,0,0,0,1.12-1.11,2,2,0,0,0,.08-.46A2.1,2.1,0,0,0,17.52,14.74Zm-.4,1.37a1.5,1.5,0,1,1-1.91-2.17,1.5,1.5,0,0,1,1.91,2.17Zm-1.29-2.28a1.47,1.47,0,0,0-1.41,1.51,1.46,1.46,0,0,0,2.65.79,1.5,1.5,0,0,0,.26-.89,1.47,1.47,0,0,0-1.51-1.41Zm.88,2.6h0s0,0-.07,0l-.07,0-.06,0a.61.61,0,0,0-.2-.1l-.12,0-.09,0s0,0,0-.06,0,0,0-.07H16l0,0s0,0-.09,0-.13-.07-.14-.06a.76.76,0,0,1-.28-.1l-.15-.07v0s0-.05,0-.06a.07.07,0,0,0-.08,0l0,0a1.66,1.66,0,0,1-.35-.16l-.05,0-.25-.11s0,0,0,0,.08-.11.18-.17a2.43,2.43,0,0,0,.3-.19L15,15l0,0,0,0a.06.06,0,0,0,.1-.06.21.21,0,0,1,0-.05.42.42,0,0,1,.17-.11l.11-.07.32-.23,0,0a.07.07,0,0,0,.1,0s0,0,0-.06,0,0,.06-.1c.37-.25.44-.29.51-.27s.06,0,.08.11l0,.11s0,.42,0,.44l0,0s0,0,0,.07,0,0,0,.06l0,0,0,.19a2,2,0,0,1,0,.26,1,1,0,0,0,0,.16c0,.09,0,.09,0,.11s-.05.06-.05.09,0,0,0,.05l0,0v.14a.5.5,0,0,1,0,.19s0,.06,0,.17S16.76,16.4,16.72,16.42Z" transform="translate(-2.98 -1.36)"/></g></g><path class="cls-9" d="M16.56,19.38h0l0-.14h0Zm.08,0h0l0-.14h0Z" transform="translate(-2.98 -1.36)"/><path class="cls-9" d="M16.6,19.63l.12-.35.17.05,0,0a.06.06,0,0,1,0,0,.13.13,0,0,1,0,.06l0,0,0,0a.08.08,0,0,1,0,0,.11.11,0,0,1,0,.06l0,.05,0,0h-.06Zm.24-.11-.14,0,0,.13.11,0h.08l0,0a.09.09,0,0,0,0-.05A0,0,0,0,0,16.84,19.53Zm0-.16-.13,0,0,.12.11,0h.07l0,0a.06.06,0,0,0,0,0Z" transform="translate(-2.98 -1.36)"/><path class="cls-9" d="M16.94,19.74h0l.08-.25h0Zm.11-.35v0h0v0Z" transform="translate(-2.98 -1.36)"/><path class="cls-9" d="M17.23,19.62h0a0,0,0,0,0,0,0l0,0h-.06s0,0,0,0v0h0l.05,0,0,0,0,0a.07.07,0,0,1,0,0,.08.08,0,0,1,0,0h-.1l-.06,0,0,0a.07.07,0,0,1,0-.05h0a.08.08,0,0,0,0,0v0h.11s0,0,0,0,0,0,0,0l0,0h0l0,0h0l0,0a.08.08,0,0,1,0,0s0,0,0-.05h.09l.05,0,0,0A.06.06,0,0,1,17.23,19.62Z" transform="translate(-2.98 -1.36)"/><path class="cls-9" d="M17.41,19.78h0a.13.13,0,0,1,0,.06l0,0h-.07l-.06,0,0,0a.08.08,0,0,1,0,0l0-.06,0-.07,0,0h.07l.07,0a.07.07,0,0,1,0,.07h0a.07.07,0,0,0,0,0v0h-.09l0,0,0,.05v0a.22.22,0,0,0,0,.05,0,0,0,0,0,0,0l0,0h.07Z" transform="translate(-2.98 -1.36)"/><path class="cls-9" d="M17.73,19.69l-.06.25h0v0l0,0h-.05a.1.1,0,0,1-.06,0,.1.1,0,0,1,0-.07l0-.17h0l0,.17a.11.11,0,0,0,0,0v0h.08l0,0,0,0,0-.15Z" transform="translate(-2.98 -1.36)"/><path class="cls-9" d="M17.72,20h0l.06-.25h0Zm.09-.36v0h0v0Z" transform="translate(-2.98 -1.36)"/><path class="cls-9" d="M18,19.74v0l-.1,0,0,.15a0,0,0,0,0,0,0h.06v0h0a.14.14,0,0,1,0,.07.07.07,0,0,1-.07,0l0,0,0,0a.1.1,0,0,1,0,0l0-.15h0v0h0v-.06h0v.06Z" transform="translate(-2.98 -1.36)"/><path class="cls-9" d="M18,19.75h0v0a.08.08,0,0,1,.08,0s.07,0,.06.11h0a.08.08,0,0,0,0,0l0,0a.05.05,0,0,0-.07,0L18,20h0Z" transform="translate(-2.98 -1.36)"/><path class="cls-9" d="M18.18,19.91a.26.26,0,0,1,0-.07l0,0h.07l.07,0a.06.06,0,0,1,0,0,.21.21,0,0,1,0,.08.41.41,0,0,1,0,.08.07.07,0,0,1,0,0h-.08l-.07,0a.06.06,0,0,1,0,0,.18.18,0,0,1,0-.07Zm0,0v0a.12.12,0,0,0,0,.08l0,0h.09l0,0v-.06a.32.32,0,0,0,0-.05,0,0,0,0,0,0,0l0,0h-.06l0,0,0,.05Z" transform="translate(-2.98 -1.36)"/><path class="cls-9" d="M18.46,19.85h0v0l0,0h.05l.05,0,0,0a.13.13,0,0,1,0,.06l0,.17h0l0-.17a.12.12,0,0,0,0,0l0,0h0a.07.07,0,0,0-.09.06l0,.16h0Z" transform="translate(-2.98 -1.36)"/><path class="cls-9" d="M18.73,19.93h0l0-.15h0Zm.08,0h0l0-.15h0Z" transform="translate(-2.98 -1.36)"/><path class="cls-9" d="M19,20v-.09l0,0,0,0h.16l0,0a.07.07,0,0,1,0,0,.21.21,0,0,1,0,.07l0,.13,0,.06,0,0,0,0H19l0,0,0,0a.2.2,0,0,1,0-.06Zm0,0v.06a.18.18,0,0,0,0,.06l0,0,.05,0h.09l0,0a.17.17,0,0,0,0-.05l0-.12a.14.14,0,0,0,0-.06l0,0H19.1l0,0a.16.16,0,0,0,0,.06Z" transform="translate(-2.98 -1.36)"/><path class="cls-9" d="M19.33,20h0v0a.08.08,0,0,1,.08,0c.05,0,.07,0,.07.1h0a.08.08,0,0,0,0,0l0,0a.05.05,0,0,0-.07.05l0,.17h0Z" transform="translate(-2.98 -1.36)"/><path class="cls-9" d="M19.5,20.27l0-.37h0l0,.14a.08.08,0,0,1,.08,0l.07,0a.07.07,0,0,1,0,0,.26.26,0,0,1,0,.07v.06l0,0,0,0h-.06a.1.1,0,0,1-.08,0v0Zm.06-.13h0a.31.31,0,0,0,0,0v0l0,0h.09a.06.06,0,0,0,0,0v-.05a.29.29,0,0,0,0-.06,0,0,0,0,0,0,0l-.05,0h0l0,0A.23.23,0,0,0,19.56,20.14Z" transform="translate(-2.98 -1.36)"/><path class="cls-9" d="M19.8,20.3h0l0-.26h0Zm0-.37v0h0v0Z" transform="translate(-2.98 -1.36)"/><path class="cls-9" d="M20,20.06v0h-.1v.16a0,0,0,0,0,0,0H20a.07.07,0,0,0,0,0v0h0a.14.14,0,0,1,0,.07.07.07,0,0,1-.06,0h0l0,0a.1.1,0,0,1,0,0l0-.16h0v0h0V20h0V20Z" transform="translate(-2.98 -1.36)"/><path class="cls-9" d="M20.1,20.14h0s0-.05,0-.06h.15l0,0a.11.11,0,0,1,0,.06v.17h0v0l0,0h-.11l0,0a.1.1,0,0,1,0-.05.08.08,0,0,1,0,0l0,0h.11l0,0v0a.14.14,0,0,0,0,0l0,0h-.1a0,0,0,0,0,0,0h0Zm0,.1a.05.05,0,0,0,0,0l0,0h.08a0,0,0,0,0,0,0s0,0,0,0h-.12S20.08,20.22,20.08,20.24Z" transform="translate(-2.98 -1.36)"/><path class="cls-9" d="M20.36,20l0,.37h0l0-.37Z" transform="translate(-2.98 -1.36)"/><path class="cls-9" d="M20.52,20.35l0-.37h.22l0,0,0,0a.22.22,0,0,1,0,.06.2.2,0,0,1,0,0l0,0,0,0h-.2v.15Zm.05-.18h.16l0,0a.1.1,0,0,0,0,0,.2.2,0,0,0,0,0l0,0h-.18Z" transform="translate(-2.98 -1.36)"/><path class="cls-9" d="M20.89,20.18h0s0-.05,0-.06H21l0,0a.12.12,0,0,1,0,.06v.17h0v0l0,0h-.11l0,0a.09.09,0,0,1,0-.05.08.08,0,0,1,0,0l0,0H21l0,0v0a.13.13,0,0,0,0,0l0,0h-.1a0,0,0,0,0,0,0h0Zm0,.1a.06.06,0,0,0,0,0H21a0,0,0,0,0,0,0s0,0,0,0h-.12A0,0,0,0,0,20.88,20.28Z" transform="translate(-2.98 -1.36)"/><path class="cls-9" d="M21.27,20.11v0h-.1v.16a0,0,0,0,0,0,0h.06a.07.07,0,0,0,0,0v0h0a.14.14,0,0,1,0,.07.07.07,0,0,1-.06,0h0l0,0a.1.1,0,0,1,0,0v-.16h0v0h0V20h0v.06Z" transform="translate(-2.98 -1.36)"/><path class="cls-9" d="M21.34,20c0,.06,0,.08,0,.14l0,0h.11l0,0a.14.14,0,0,1,0,.06v.17h0V20.2h0a.08.08,0,0,0,0,0l0,0h-.09l0,0a.14.14,0,0,0,0,0v.15h0c0-.15,0-.22,0-.37Z" transform="translate(-2.98 -1.36)"/><line class="cls-13" x1="66.45" y1="15.8" x2="24.82" y2="15.8"/></svg>