<svg id="Layer_1" data-name="Layer 1" xmlns="http://www.w3.org/2000/svg" viewBox="0 0 54.14 17.12"><defs><style>.cls-1{font-size:7.57px;}.cls-1,.cls-10,.cls-12,.cls-9{fill:#ef7b04;}.cls-1,.cls-10{font-family:EuroStyleNormal, EuroStyle;}.cls-11,.cls-13,.cls-2,.cls-3,.cls-4,.cls-5,.cls-6,.cls-7,.cls-8{fill:none;}.cls-11,.cls-12,.cls-13,.cls-2,.cls-3,.cls-4,.cls-5,.cls-6,.cls-7,.cls-8{stroke:#ef7b04;}.cls-13,.cls-2,.cls-3,.cls-4,.cls-5,.cls-6,.cls-7{stroke-miterlimit:10;}.cls-2,.cls-3,.cls-4,.cls-5,.cls-6,.cls-7{stroke-width:0.08px;}.cls-3{stroke-dasharray:0.23 0.23 0.34 0.23;}.cls-4{stroke-dasharray:0.22 0.22 0.34 0.22;}.cls-5{stroke-dasharray:0.17 0.22 0.22 0.22 0.34 0.22;}.cls-6{stroke-dasharray:0.22 0.22 0.32 0.22;}.cls-7{stroke-dasharray:0.16 0.22 0.22 0.22 0.32 0.22;}.cls-8{stroke-width:0.04px;}.cls-10{font-size:0.45px;}.cls-11{stroke-width:0.05px;}.cls-12{stroke-width:0.01px;}.cls-13{stroke-width:0.25px;}</style></defs><title>Canonn R&amp;amp;D (MINI)</title><text class="cls-1" transform="translate(14.61 10.97)">CANONN R&amp;D</text><g id="Dotted_Orbital" data-name="Dotted Orbital"><g id="Dotted_Orbital-2" data-name="Dotted Orbital"><g id="Dashed_Orbit" data-name="Dashed Orbit"><path class="cls-2" d="M5.68,10.27l-.07-.05" transform="translate(-1.8 -0.82)"/><path class="cls-3" d="M5.44,10.08l-.69-.59" transform="translate(-1.8 -0.82)"/><path class="cls-2" d="M4.66,9.42,4.6,9.37" transform="translate(-1.8 -0.82)"/></g><g id="Dashed_Orbit-2" data-name="Dashed Orbit"><path class="cls-2" d="M12.5,8.67l.06.05" transform="translate(-1.8 -0.82)"/><path class="cls-4" d="M12.73,8.86l.69.58" transform="translate(-1.8 -0.82)"/><path class="cls-5" d="M13.5,9.52c2.08,1.86,3.18,3.64,2.62,4.51-.74,1.15-4.14.28-7.79-1.92" transform="translate(-1.8 -0.82)"/><path class="cls-2" d="M8.24,12l-.07,0" transform="translate(-1.8 -0.82)"/></g><g id="Dashed_Orbit-3" data-name="Dashed Orbit"><path class="cls-2" d="M3,7.75,3,7.69" transform="translate(-1.8 -0.82)"/><path class="cls-6" d="M2.84,7.52a7.67,7.67,0,0,1-.5-.71" transform="translate(-1.8 -0.82)"/><path class="cls-7" d="M2.29,6.72c-.45-.77-.58-1.42-.3-1.85.59-.91,2.84-.56,5.56.72,0,0,.16.06,1.35.69.37.2.75.42,1.12.66" transform="translate(-1.8 -0.82)"/><path class="cls-2" d="M10.11,7l.07,0" transform="translate(-1.8 -0.82)"/></g><g id="Buscuit"><path class="cls-8" d="M3.68,9.65A1.06,1.06,0,0,0,4.9,8.79a1,1,0,0,0,0-.4.18.18,0,0,1-.1,0,.17.17,0,0,1-.15-.16H4.57A.22.22,0,0,1,4.39,8a.21.21,0,0,1,.06-.12h0a.17.17,0,0,1-.15-.2h0A1.1,1.1,0,0,0,4,7.6" transform="translate(-1.8 -0.82)"/><path class="cls-8" d="M4,7.6a1,1,0,1,0-.33,2.05" transform="translate(-1.8 -0.82)"/></g></g><g id="Dashed_Orbit-4" data-name="Dashed Orbit"><path class="cls-2" d="M13.51,9.89c1.61,1.54,2.42,3,1.95,3.69a1.48,1.48,0,0,1-1.39.45" transform="translate(-1.8 -0.82)"/><polygon class="cls-9" points="11.74 13.16 12.51 12.92 12.31 13.21 12.46 13.53 11.74 13.16"/></g><g id="Dashed_Orbit-5" data-name="Dashed Orbit"><path class="cls-2" d="M3,7.12c-.46-.7-.61-1.3-.37-1.68S3.7,4.93,4.8,5.2" transform="translate(-1.8 -0.82)"/><polygon class="cls-9" points="3.51 4.52 2.7 4.63 2.95 4.38 2.85 4.04 3.51 4.52"/></g></g><g id="_Biscuitron_Labeling" data-name="&quot;Biscuitron&quot; Labeling"><text class="cls-10" transform="translate(10.36 1.51)">“Biscuitron”</text><path class="cls-11" d="M14,2.4a1.15,1.15,0,0,1-.23.72" transform="translate(-1.8 -0.82)"/><polygon class="cls-9" points="11.65 2.48 11.99 2.02 11.99 2.27 12.22 2.39 11.65 2.48"/></g><g id="Non-Dotted_Orbitals" data-name="Non-Dotted Orbitals"><path class="cls-12" d="M13.2,3.47a1,1,0,0,0-.28-.28.16.16,0,0,1-.06.07.16.16,0,0,1-.17,0,.19.19,0,0,1-.07.07.19.19,0,0,1-.26-.05.18.18,0,0,1,0-.09.16.16,0,0,1-.16-.07.15.15,0,0,1,0-.07,1,1,0,0,0-.33.14,1,1,0,1,0,1.38.28Z" transform="translate(-1.8 -0.82)"/><path class="cls-12" d="M7.62,14.25a1,1,0,0,0-1,1,1,1,0,0,0,.08.4l.09,0a.17.17,0,0,1,.15.1l.1,0a.19.19,0,0,1,.2.19.18.18,0,0,1,0,.1.16.16,0,0,1,.1.15.16.16,0,0,1,0,.07,1.06,1.06,0,0,0,.37.07,1,1,0,1,0,0-2Z" transform="translate(-1.8 -0.82)"/><path class="cls-9" d="M11.56,13.62a.19.19,0,0,1,0,.07l0,.09h0v0a7.94,7.94,0,0,1-.14.91c-.32,1.6-.89,2.6-1.56,2.74a1.07,1.07,0,0,1-.29,0,1.7,1.7,0,0,1-1-.69,8,8,0,0,1-1.17-2.4c-.07-.22-.16-.5-.16-.52l.05,0,.82-.49.81-.54.2-.14h0l.05,0,.09-.05.05,0,.33-.24L10,12l0-.1-.72.54,0,0v0l-.06,0-.06,0-.08.06-.24.16c-.45.3-1,.62-1.41.88-.06,0-.08,0-.09,0s-.08-.27-.14-.5-.08-.33-.12-.5H6.81c.06.27.11.54.18.8s.07.28.05.29-.71.37-1,.48a7.2,7.2,0,0,1-1.9.59,4.46,4.46,0,0,1-.57,0A1.35,1.35,0,0,1,3,14.67a1,1,0,0,1-.21-.22c-.28-.43-.18-1.16.28-2.09A12.71,12.71,0,0,1,4.79,9.87l.13-.14h0A.19.19,0,0,1,5,9.62l0,0,.23-.24.52-.54a.31.31,0,0,1-.07-.1l-.59.61-.21.21a.21.21,0,0,1,0,.07l0,0-.1.13a9.52,9.52,0,0,0-2.44,4,2.19,2.19,0,0,0,0,.59,1,1,0,0,0,.89.78,3.4,3.4,0,0,0,.66,0A7.64,7.64,0,0,0,6,14.51c.23-.11.73-.35.95-.47l.18-.09s0,0,0,.06a15.64,15.64,0,0,0,.57,1.66,6.26,6.26,0,0,0,1,1.73,1.66,1.66,0,0,0,.85.54h0a1.16,1.16,0,0,0,.39,0,1.3,1.3,0,0,0,.32-.16,2.21,2.21,0,0,0,.36-.37,5.35,5.35,0,0,0,.78-1.89A13.81,13.81,0,0,0,11.66,14a.6.6,0,0,1,0-.1v0a.23.23,0,0,1,0-.08h0a.2.2,0,0,1,0-.07v0s0-.13,0-.25,0-.35,0-.52h-.12C11.6,13.28,11.57,13.57,11.56,13.62ZM6.41,8.93,6.29,9c0,.23,0,.57.07.9l.11,0C6.45,9.54,6.43,9.24,6.41,8.93ZM5.08,4.58h0ZM15.75,4a.81.81,0,0,0-.36-.39,2.72,2.72,0,0,0-.47-.15,2.6,2.6,0,0,0-.76,0,8.21,8.21,0,0,0-2.2.73c-.28.13-.92.46-1,.52s-.06,0-.06,0l0-.17c-.55-1.86-1.25-3.11-2-3.55a.9.9,0,0,0-1,0,2,2,0,0,0-.32.27A7.08,7.08,0,0,0,6.38,4.82a1.07,1.07,0,0,1,0,.18h0a.2.2,0,0,1,0,.14,1.84,1.84,0,0,1,0,.34c0,.14,0,.39,0,.57h0s.06,0,.09,0c0-.25,0-.49.06-.78a.66.66,0,0,1,0-.08.21.21,0,0,1,0,0V5.11h0a.18.18,0,0,1,0-.05s0-.38.09-.67c.31-1.88.88-3,1.61-3.22a.91.91,0,0,1,.55,0,2.51,2.51,0,0,1,1,1,9.22,9.22,0,0,1,.85,1.88c.09.26.2.63.2.65l-.2.13c-.35.21-.66.41-1,.65L9,5.92,8.87,6l-.13.09-.09.07h0l-.16.13L8,6.67l.06,0s0,0,0,0c.31-.24.59-.45.63-.47l.05,0,.06,0A2.06,2.06,0,0,1,9.14,6l.14-.1c.35-.24.87-.58,1.23-.8s.3-.18.32-.17,0,.07.15.5c.06.24.12.53.18.81l.1,0c-.09-.44-.19-.88-.29-1.23a.4.4,0,0,1,0-.13l.67-.36A7.91,7.91,0,0,1,14,3.65a3,3,0,0,1,.67,0,.93.93,0,0,1,.88.86c.11.95-.81,2.63-2.39,4.38L13.05,9a.69.69,0,0,1-.11.13h0s-.44.46-.74.76l.09,0,.33-.33.43-.43h0l0,0,.07,0h0L13.24,9a10.64,10.64,0,0,0,2.54-4,2,2,0,0,0,.07-.6A1,1,0,0,0,15.75,4Zm-4,5.79c0-.24,0-.53-.07-.79h-.09c0,.2,0,.48.06.77Z" transform="translate(-1.8 -0.82)"/></g><g id="Crossed_Wrenches" data-name="Crossed Wrenches"><path id="Wrench" class="cls-9" d="M12.65,7.34l-.41.31c-.36.29-.4.32-.42.31l-.07,0-.17-.07-.2-.09-.09,0s-.07-.52-.07-.56a5.34,5.34,0,0,1,.59-.5L12,6.5a.74.74,0,0,0-.27-.1,1.17,1.17,0,0,0-.72.09,1.42,1.42,0,0,0-.36.26,1.2,1.2,0,0,0-.24.45,1.29,1.29,0,0,0,0,.48.51.51,0,0,1,0,.07l0,.07a8.68,8.68,0,0,1-1,.78L7.86,9.77h0a4.09,4.09,0,0,1-.6.44L7,10.2a1.3,1.3,0,0,0-.3,0,1.16,1.16,0,0,0-.8.4,1.18,1.18,0,0,0-.27.73,1,1,0,0,0,0,.2l.41-.31c.36-.29.4-.32.42-.31l.07,0,.17.07.2.09.09,0s.07.52.07.56a5.34,5.34,0,0,1-.59.5l-.19.16,0,0,.22.07h0a1.18,1.18,0,0,0,.75-.08,1.42,1.42,0,0,0,.36-.26,1.19,1.19,0,0,0,.28-.91.46.46,0,0,1,0-.08s.06-.11.16-.2l2.84-2.22a.31.31,0,0,1,.19-.06h.08l.18,0h.23a1.15,1.15,0,0,0,.8-.4,1.18,1.18,0,0,0,.27-.73A1,1,0,0,0,12.65,7.34Zm-4.89,4.2a1,1,0,0,1-.2.41,1,1,0,0,1-.75.37h0c-.12,0-.2,0-.2,0L6.92,12l.33-.26s0,0,0-.23l0-.36c0-.16,0-.17,0-.2s0,0-.46-.21l-.25-.1-.34.26-.33.25a1,1,0,0,1,.05-.2A1.11,1.11,0,0,1,6,10.73a1.06,1.06,0,0,1,.57-.38,1,1,0,0,1,.44,0,1.13,1.13,0,0,1,.4.17,1.1,1.1,0,0,1,.36.48A1,1,0,0,1,7.75,11.54ZM10.7,8.63,9.29,9.71l-1,.8h0l-.42.32-.06-.1a1,1,0,0,0-.24-.3l-.07-.07,1.11-.88L10,8.35A3.78,3.78,0,0,1,10.45,8a.8.8,0,0,1,.08.21l-.17.14c-.49.36-2,1.54-2,1.56a.16.16,0,0,0,0,.12.1.1,0,0,0,.08,0c.07,0,.05,0,1.19-.87l1.09-.84.05,0,.08.06,0,0Zm1.76-.77a1,1,0,0,1-.33.46,1,1,0,0,1-.67.22h-.08l-.07,0a1.15,1.15,0,0,1-.39-.17,1.1,1.1,0,0,1-.36-.48,1,1,0,0,1,0-.55,1,1,0,0,1,.21-.41,1,1,0,0,1,.69-.37c.13,0,.26,0,.26,0l-.32.25L11,7.06s0,0,0,.23l0,.36c0,.16,0,.17,0,.2s0,0,.46.21l.25.1.34-.26.33-.25A1,1,0,0,1,12.46,7.86Z" transform="translate(-1.8 -0.82)"/><g id="Obelisk_Ratchet" data-name="Obelisk Ratchet"><path class="cls-9" d="M8.36,8.32c-.59-.46-.62-.47-.63-.52a2.92,2.92,0,0,1,0-.39c0-.2,0-.38,0-.4V7L7.4,6.69,7,6.37,7,6.32H6.89l-.27.05-.21,0a1,1,0,0,0,0,.22l.32.26.32.25s0,.64,0,.65L7,7.85,6.69,8l-.23.1-.36-.27-.35-.27H5.53v0c0,.07,0,.58,0,.58s.79.57.8.57l.37-.12.39-.13c.05,0,.07,0,.29.16l.79.58.06,0L9,8.78l-.08-.06Zm3.08,1.84a1.1,1.1,0,0,0-1.05,1.13,1.09,1.09,0,0,0,2,.59,1.12,1.12,0,0,0,.2-.66,1.1,1.1,0,0,0-1.13-1.05Zm.66,1.95h0s0,0,0,0l-.06,0,0,0A.46.46,0,0,0,11.8,12l-.09,0-.07,0s0,0,0,0,0,0,0-.05h-.08l-.06,0c-.05,0-.09-.05-.1,0a.57.57,0,0,1-.21-.07L11,11.64v0s0,0,0,0a0,0,0,0,0-.06,0h0a1.25,1.25,0,0,1-.26-.12l0,0-.19-.08s0,0,0,0,.06-.08.14-.12l.22-.14.07,0,0,0,0,0A0,0,0,0,0,11,11a.15.15,0,0,1,0,0,.31.31,0,0,1,.12-.08l.08,0,.24-.17h0a.05.05,0,0,0,.07,0s0,0,0,0,0,0,0-.07c.28-.19.33-.22.38-.2s0,0,.06.08l0,.08s0,.32,0,.33l0,0s0,0,0,.05,0,0,0,0h0v.14a1.46,1.46,0,0,1,0,.19.76.76,0,0,0,0,.12c0,.07,0,.07,0,.08s0,0,0,.07,0,0,0,0l0,0v.1a.38.38,0,0,1,0,.14s0,0,0,.13S12.13,12.09,12.1,12.11Zm.6-1.26a1.38,1.38,0,0,0-.24-.43,1.3,1.3,0,0,0-.94-.47,1.59,1.59,0,0,0-.44.06c-.22.07-.29.08-.39.05l-.06,0-.4-.31L10,9.55l-.69.54h0s0,.05.23.19l.4.3c.21.16.21.16.23.29a1.76,1.76,0,0,1,0,.19,2.43,2.43,0,0,0,0,.41,1.29,1.29,0,0,0,.46.77,1.3,1.3,0,0,0,.84.29,1.71,1.71,0,0,0,.36-.06,1.3,1.3,0,0,0,.84-.83,1.54,1.54,0,0,0,.06-.35A1.58,1.58,0,0,0,12.7,10.84Zm-.3,1A1.12,1.12,0,1,1,11,10.24a1.12,1.12,0,0,1,1.43,1.63Z" transform="translate(-1.8 -0.82)"/></g></g><path class="cls-9" d="M12,14.33h0l0-.11h0Zm.06,0h0l0-.11h0Z" transform="translate(-1.8 -0.82)"/><path class="cls-9" d="M12,14.51l.09-.26.13,0,0,0,0,0a.1.1,0,0,1,0,0l0,0h0l0,0a.07.07,0,0,1,0,0l0,0,0,0h0Zm.18-.08-.11,0,0,.1.08,0h.06l0,0a.07.07,0,0,0,0,0Zm0-.12-.09,0,0,.09.08,0h.05v0a0,0,0,0,0,0,0Z" transform="translate(-1.8 -0.82)"/><path class="cls-9" d="M12.26,14.59h0l.06-.19h0Zm.08-.27v0h0v0Z" transform="translate(-1.8 -0.82)"/><path class="cls-9" d="M12.48,14.51h0a0,0,0,0,0,0,0h-.08l0,0v0h.09l0,0a.05.05,0,0,1,0,0l0,0h-.08l0,0,0,0a0,0,0,0,1,0,0h0a.06.06,0,0,0,0,0v0h.08l0,0s0,0,0,0h-.1v0a.06.06,0,0,1,0,0s0,0,0,0h.11l0,0A.05.05,0,0,1,12.48,14.51Z" transform="translate(-1.8 -0.82)"/><path class="cls-9" d="M12.62,14.62h0l0,0h-.08l0,0,0,0a.08.08,0,0,1,0,0v0l0-.05,0,0h.05l.05,0a0,0,0,0,1,0,.05h0a.06.06,0,0,0,0,0v0h-.09l0,0v.06a0,0,0,0,0,0,0l0,0h.05Z" transform="translate(-1.8 -0.82)"/><path class="cls-9" d="M12.85,14.55l0,.19h0v0l0,0h0l0,0a.07.07,0,0,1,0-.05l0-.12h0l0,.12a.06.06,0,0,0,0,0v0h.08v0l0-.11Z" transform="translate(-1.8 -0.82)"/><path class="cls-9" d="M12.85,14.75h0l0-.19h0Zm.07-.27v0h0v0Z" transform="translate(-1.8 -0.82)"/><path class="cls-9" d="M13,14.6v0l-.07,0,0,.12a0,0,0,0,0,0,0h0v0h0a.11.11,0,0,1,0,.05h-.08v0a.07.07,0,0,1,0,0l0-.12h0v0h0v0h0v0Z" transform="translate(-1.8 -0.82)"/><path class="cls-9" d="M13.06,14.6h0v0a.06.06,0,0,1,.06,0s.05,0,0,.08h0a.07.07,0,0,0,0,0l0,0a0,0,0,0,0-.06,0l0,.13h0Z" transform="translate(-1.8 -0.82)"/><path class="cls-9" d="M13.19,14.72l0-.05,0,0h.05l.05,0a0,0,0,0,1,0,0,.17.17,0,0,1,0,.06l0,.06,0,0h-.06l-.05,0,0,0a.13.13,0,0,1,0-.06Zm0,0v0a.09.09,0,0,0,0,.06h.09v-.07a.21.21,0,0,0,0,0,0,0,0,0,0,0,0h-.1v0Z" transform="translate(-1.8 -0.82)"/><path class="cls-9" d="M13.4,14.67h0v0l0,0h.08l0,0a.11.11,0,0,1,0,0l0,.13h0l0-.12a.09.09,0,0,0,0,0v0h0a.05.05,0,0,0-.07,0l0,.12h0Z" transform="translate(-1.8 -0.82)"/><path class="cls-9" d="M13.6,14.74h0v-.11h0Zm.06,0h0v-.11h0Z" transform="translate(-1.8 -0.82)"/><path class="cls-9" d="M13.81,14.8v-.07l0,0,0,0H14l0,0,0,0a.13.13,0,0,1,0,.05v.14l0,0h-.15l0,0,0,0a.14.14,0,0,1,0,0Zm0,0v0a.16.16,0,0,0,0,0l0,0H14l0,0v-.13a.11.11,0,0,0,0,0l0,0h-.1l0,0v.09Z" transform="translate(-1.8 -0.82)"/><path class="cls-9" d="M14.05,14.78h0v0a.06.06,0,0,1,.06,0s.05,0,0,.08h0a.07.07,0,0,0,0,0h0a0,0,0,0,0-.05,0l0,.13h0Z" transform="translate(-1.8 -0.82)"/><path class="cls-9" d="M14.18,15l0-.28h0v.11a.06.06,0,0,1,.06,0l.05,0a.05.05,0,0,1,0,0,.21.21,0,0,1,0,.05V15l0,0h0a.07.07,0,0,1-.06,0v0Zm0-.1h0V15h.08l0,0v0a.27.27,0,0,0,0,0v0h-.07l0,0Z" transform="translate(-1.8 -0.82)"/><path class="cls-9" d="M14.4,15h0l0-.19h0Zm0-.28v0h0v0Z" transform="translate(-1.8 -0.82)"/><path class="cls-9" d="M14.57,14.83v0h-.08V15a0,0,0,0,0,0,0h0v0h0a.1.1,0,0,1,0,.05h-.08l0,0a.07.07,0,0,1,0,0v-.12h0v0h0v0h0v0Z" transform="translate(-1.8 -0.82)"/><path class="cls-9" d="M14.63,14.89h0s0,0,0,0h.11l0,0a.08.08,0,0,1,0,0V15h0v0l0,0h-.09l0,0a.07.07,0,0,1,0,0,.05.05,0,0,1,0,0l0,0h.08l0,0v0a.12.12,0,0,0,0,0l0,0h-.08v0h0Zm0,.08a0,0,0,0,0,0,0h.09a0,0,0,0,0,0,0s0,0,0,0h-.09S14.62,15,14.62,15Z" transform="translate(-1.8 -0.82)"/><path class="cls-9" d="M14.82,14.77l0,.28h0l0-.28Z" transform="translate(-1.8 -0.82)"/><path class="cls-9" d="M14.95,15.05v-.28h.19l0,0a.19.19,0,0,1,0,0,.18.18,0,0,1,0,0l0,0H15v.11Zm0-.13h.14a.07.07,0,0,0,0,0,.13.13,0,0,0,0,0v0H15Z" transform="translate(-1.8 -0.82)"/><path class="cls-9" d="M15.23,14.92h0s0,0,0,0h.11l0,0a.08.08,0,0,1,0,0v.13h0v0l0,0h-.09l0,0a.07.07,0,0,1,0,0,.05.05,0,0,1,0,0l0,0h.08l0,0v0a.11.11,0,0,0,0,0l0,0h-.08a0,0,0,0,0,0,0h0Zm0,.08a0,0,0,0,0,0,0h.1a0,0,0,0,0,0,0s0,0,0,0h-.09A0,0,0,0,0,15.22,15Z" transform="translate(-1.8 -0.82)"/><path class="cls-9" d="M15.51,14.87v0h-.08V15a0,0,0,0,0,0,0h0a.05.05,0,0,0,0,0h0a.11.11,0,0,1,0,.05l0,0h0l0,0a.07.07,0,0,1,0,0v-.12h0v0h0v0h0v0Z" transform="translate(-1.8 -0.82)"/><path class="cls-9" d="M15.57,14.78v.11l0,0h.08l0,0a.09.09,0,0,1,0,0v.13h0v-.13h0a.06.06,0,0,0,0,0h-.08l0,0a.12.12,0,0,0,0,0v.11h0c0-.11,0-.17,0-.28Z" transform="translate(-1.8 -0.82)"/><line class="cls-13" x1="49.79" y1="11.84" x2="18.6" y2="11.84"/></svg>